<mxfile host="app.diagrams.net" modified="2022-10-18T09:38:23.450Z" agent="5.0 (Windows NT 10.0; Win64; x64) AppleWebKit/537.36 (KHTML, like Gecko) Chrome/106.0.0.0 Safari/537.36" etag="rlM8V8VG-egPeTlYdc4T" version="20.2.5" type="github">
  <diagram id="Bxii269fCYbyezUw6nzS" name="Page-1">
    <mxGraphModel dx="1038" dy="547" grid="1" gridSize="10" guides="1" tooltips="1" connect="1" arrows="1" fold="1" page="1" pageScale="1" pageWidth="850" pageHeight="1100" math="0" shadow="0">
      <root>
        <mxCell id="0" />
        <mxCell id="1" parent="0" />
        <mxCell id="T1ir6dgXuIq2QgHA1IsL-10" value="k8s node" style="rounded=0;whiteSpace=wrap;html=1;align=left;verticalAlign=top;fillColor=#dae8fc;strokeColor=#6c8ebf;" vertex="1" parent="1">
          <mxGeometry x="80" y="270" width="390" height="250" as="geometry" />
        </mxCell>
        <mxCell id="T1ir6dgXuIq2QgHA1IsL-11" value="k8s node" style="rounded=0;whiteSpace=wrap;html=1;verticalAlign=top;align=left;fillColor=#dae8fc;strokeColor=#6c8ebf;" vertex="1" parent="1">
          <mxGeometry x="488" y="270" width="392" height="250" as="geometry" />
        </mxCell>
        <mxCell id="T1ir6dgXuIq2QgHA1IsL-12" value="" style="rounded=1;whiteSpace=wrap;html=1;" vertex="1" parent="1">
          <mxGeometry x="301.63" y="385" width="136.75" height="100" as="geometry" />
        </mxCell>
        <mxCell id="T1ir6dgXuIq2QgHA1IsL-13" value="Pod 1" style="text;html=1;strokeColor=none;fillColor=none;align=center;verticalAlign=middle;whiteSpace=wrap;rounded=0;" vertex="1" parent="1">
          <mxGeometry x="319.13" y="385" width="40" height="20" as="geometry" />
        </mxCell>
        <mxCell id="T1ir6dgXuIq2QgHA1IsL-15" value="eth0" style="rounded=0;whiteSpace=wrap;html=1;fillColor=#FFFFFF;" vertex="1" parent="1">
          <mxGeometry x="338.38" y="465" width="77.5" height="20" as="geometry" />
        </mxCell>
        <mxCell id="T1ir6dgXuIq2QgHA1IsL-28" value="" style="shape=image;verticalLabelPosition=bottom;labelBackgroundColor=#ffffff;verticalAlign=top;aspect=fixed;imageAspect=0;image=data:image/png,iVBORw0KGgoAAAANSUhEUgAAAX0AAACECAMAAABLTQsGAAABNVBMVEX///8BAQEAAADZ8f3/4QDp6ekAru88PDxCQkJvb2++vr6urq6lpaX29vaioqIuLi40NDTf+P//5QDX19e4uLgAsfPGxsbh+v//6AB5eXkAqu6cnJyEhITU1NRkZGTOzs7v7+8cHByCgoJPT0/h4eGSoqrI3ulRUVEmJiYODg5ycnKMjIxbW1u6z9kAmtRFTVHS6fXUuwA8Q0anusMAibxdZ2wBKTgAeKQBUG4BOU7O7vxeUwF4hoz32gApJAEzODuFlJxpdHqJ1PcAXH4Als4BJTOfsbqNnaW2oQA7u/J5awHLswDiyAAAbJTBqgA1LwFFPQEhGxY/jbCy5v8BFB0ma4iE0/dfw/MxufGk3/mYhgAARV4bFwEALkRxttaGdwGlkgByZAFxlKZPRgE7NQGVw9lgVQGq5+vfAAAUHElEQVR4nO2dC1caSRaAoRBEEBGQhxKxUYK0+H5EYyQ+4pjEmGR24655zGySze78/5+wVd31ruru6hYDG7jnzJkTpIvqr25X3Xvr1u1Y7CFkugPSSw/S8lgCZRkgyQy6G6MpJQDi8ThoDrofoykNBD8OwKD7MZLiqv6Y/mBkyoEfB91Bd2QUxSKqnxt0T0ZR6mPVH6B0XNW3x6o/AFnCE8/yoDsykrKMZ/3SoDsykpJ26U8Ouh8jKUk88dQH3ZGRlOx44hmgLI/93AHKikt/fdD9GEnJxV36M4PuyEhKDi+649j+IKSFwwytQXdkJKUyXnQHKHNj+gOU7Jj+AAXTH2/pDkQwfXvQ/RhNGc88g5TMmP6AJGdZVgbb++ONrZ8ouaVuYyXftO0mpr846B6NjmTWAZW4S3/eMrludbZr8r2xeMu0zahTAWA1MNSzhq6zrZ/QxV9WKnmFPMYPZud8r3STrsD8T+roryjLevZ4ANIV7ysbOBqa/3md/cUkl/aB7+j/lIfxk5zEV46336OKZfvCd/lrrZ85slIAMP2ze/2LSC4dwN7Fq25zWVPUNgKNAXT8/0CSpaW5end5Hslyd2ZuabElzSJTQZqPAcvr6ow9hu8ji9n5dAeo0pxdr2doqkjWCL6CeLpJr1MHZtSlNLMieU5sCscy2a3k6A5uOPytLtcuGKdcCVLq5lXsMkpHVmfmTeGja9Zg47mWO7D0U9vHHh09ya4EkBfHwBg++nq33sgLF8EBTA76hodIMp1wREOJPJMBnSk0umKtKuyVRbefY9GwBn3HQyQVES6xcU53t7a21uF/u3m7b2MA21jva46tlTQQy/LfcghuJKCBmEkv5CadC7PSrAB2D872NtrbiULVlcR2u72xd3a+1bzvCCC973Pwf15jHKtiT67PZ71HPR3cQmel8WjOO00sb9QNQZAxgvx+yiYOmid7EHshoUoBjcLVyW7EEXAvq/d9sX0U4n5nH3kMwKppC/kpj9D5ZCjwjiB3Z5G5no5s68izIYADs3fiPAOh4ee7D5HW/yiM7QtAWvvorRg24hCq6yahydAKiejn8hT+0/1N2PZJ1Y8+fgo2TvIh+QP7gUzMEPTj7tSn6YhJzIq1ALoq/2j06yTc+Le/l8vlI9j0RiB9NACJjYNQ/B+saEk4+qgjGj8vBH2nibxSACcafRvDz7c/LKTKSPl3TeijAWifh+H/UEcqwtJH8LL3o68LjUeiX8F7TPZ2IvE6lSq/NZt7XKludMzxP1TtgPD0Nc9hWPqwCelEciT6XZz/tAfXWqj8qfITiP+xKf5EIh9C+f03enWSSy5mMpWW5fedqUj2l2Q6hqaPwif3p4/P124hQ6fwGs098TD4CxshlH8qHPpSd5U4eZPz3iG5KPTjYOW+9CEmQZsi0Xfzn8CZY2YeI+W/RLd7DpdVaF1CT6uAPC1XoP+FfC/BGaiemtMPk9qcq8+KxvGkMlffi770IEagD9vgjadI9PGae+USvUD499HNdq7ae49Ptk5tkYGd3zo4e7zXRna/c0nhJMTEbxmz72qck7TeZI1EPw7S96YfF/aNItHHhwwfY32+W4Bm56WBn9Y5OLtqb8On4ywEfdM6hTMeP6q9PiJ98UB3NPp8hyLRxwVdTshs8nrz8Og3t6wdL/I/3f81D042zkPQN9tPKXkHXXQNKPTVy7S9EXbWItEXlD8S/XVu1U1U24+3uE4/OXrx9nD/cnMf3dCTy83N/f3Dty+Ont4G35v+54z8rWlP9vCnNFEumb7HlUpnhKlHoW/ShDDzK/R9bgPLPC4lBQCayfcY+i9v9zfhEuDIJpr7X6TK+J/lciq1uf8WPSHh4MdVJ0eryn6yortA+hXlAbHmVtRuiocMZPpganqGl3l9YIXbJJLpB8MHa7FFvOyeJ17iBfb26eGmyxgLwvyW/ROJOwqXhy+ehKIfbPDnVnz7q5t7gunHYsSpFL5n+dFXsrysGf8HSKFvNM1ikxO4OST20X6KJw9Bo9DPPz5CgZ8uOMKNwWWYiSe4QzkpSm43phdbrVKmQT9JK9cY0dfgF5bdYPqxWFJdHLgHSKFvNM12SU4fFEfrHbCI8eu7FLY/D46JfPj0z7u7jyk6Br+FirMF2Tw50ca3py3ylxZdiZVwhRl9zeLM98aEfsxSV1aWKRmNfoumVB5duugh2Y93Fx8SiU8L7rzT2ZZd3ONPF3flhQX4XJjDV917RcRpR/TkyVOhsDWkX7k/fVJ0jv8eXcqi0YfKj+eew7KDPnX36di1P1HU7RDe8JV2v6Vw/OEfISP8AT1p8OwnpaGq4M+VlduQvnXvmSem2YRhy25E+jly2Arslx30BC8KuqXgsnrqEeOpvgy5vxKQtVnn4StJhrl70o8p4Pg5zJD+tNIIjXRGpB/L0Lnn8OKYo3ux4AZ99KqfKJyF3FwMMHmWePhqug+hrzQSUfcDLE49fWXqYRoVlX5sje4tnvGxzbsFN9yv1/zCeVj4/qd4c/7w6eAo27KG9JfkrwmugyH9lkKfbhlFpk9/G4Atbk/9oxvt1+61FNoeB7Z86PsXSF3j4OtunXhhmj8Y0ZcTT8URNqRvPQT9ZIdcCpp7BDYKN6fg7e7pNP+xH3sXk/Khr8VT4eDrcpuT+G/q9qQZfVlrxfBwdN2nexbR6ceSTYofnLerZNF1jH3F3ExUN7b84TcPtuJKP/1Vn4usaRdnknCjrh1G9BVTXfqVyPP+vVddJEnuQAk4QVsryNpH9mZTYb/Nkhk0Oh4HHZQUsX0l/gU0Lb/fz3Kqr/s7sYfy6t6wQl/j02VtZc0VU4si2zz3tThdsfI80ZN2oXDhLrpb4nwvJJIA8Oyz5pTFhrNNud0B/Mf+UYYmg69ziDPkj5o4nUJ/vi5KV5ciLD2JhvTVUOh9vS0iDe5kAwAHexdues85W4YLBTcCzb72tVj7Jibg3t7SlJTtU+6b/udUMgy+bvOXGqOaEKdJfF9dhORwUWRflz5CCv25nLdo2q5zbcMO33453PyCTB60iVioVtsbZ1vCjQDwqjYxUdt5zo/HPucct5v0cQp4FwKL7+gy3pgnoFu4I+xtgbwVhb56StMvytbJe8pkOq8+GS0hO8chDRX55dXV1cuTg1NbQg9+3ED4ExPF3jWbtF6Uy7/RtYImPATtpyeZkmqGiT0YWnctNH0A0jJ8M/qrfs9QyN0V3a3UxYdU2lEU/mK/qhUnXKnt/IEp/1l27SS8TVwlhmmA7rMYQ1zhwv1R30hI+vp2DOgvaQ6HcxNquJ1FvSK1ptRJUnsHX3u1CSLFHgnU/QvlRDyFQ0PsowMSxPA19ln2tWKWWqz8jEc6UCj6sJmGrisK/bpwnmIx29Vl7fG31Q/6sVipEcQfsb9h7KHuf8aMz6uvU4LyJ7ZJCE+3XhLhJh6ZzBzLaPGK0YWhDyZn9GkpEfd1ubvqD32o//Pe+FEv/vjWo5OOS5+ofttNRoTK3yFm0h75m48BxvzcjjQsXMzZM0Aain6nkdU+hREzSjiG/aIfmyHE1HkOgOs3xaLAfqL4Bn8fGaevsYdMAqMFMvdo/CQiLHVKsEtz/KmUR55Xh515wIpGEaLR5wus9I1+HsO3Ff7gfU1Ue0f1v+PvbyQSVPlpGnrbxn/1PiPKNJzztJJCOptPNkRYmwe2NqsESqNlEvIeZL/ok6Ty697Oqx+yJ1uT2UN57n7fBf7aDVDQMxhVvA0Amp7Kzw5N0a9UhMSSWb8TR1HsfUUVItFf41voF/01rKw3xSJZT1m3dxTVL+5gvC8LCaL80OE9oD4yWXi93N0cNXmwW7C0LKY2rHlc6EojktpKbUbJYRYXqT7RxzuN4FnNmdKlq64V5ccjRLS9QM5gtMnCexXw0lGLBnnSsVxlWj4+2PSPEJU0sWwDa0XCHyV/X1y++0Qfn2EE74rMkmdX2T1Z+WvP3O+fYmX/hPcFaGooSTL3qkNl2SovJgExipyyy6NvRoUnLCXhz67Yku3UJ/okt9Bl+7t8b19l5e+9xxYP2Zb5iFOw6NRDrE6PeENSz8uRqaAklHmFLKiXJFnMrql+qri9EpI+XIrkjvWJPi7V+MOhXLtWNEua+Ys3OOOZbr6T3Xi2Kbbra/N7018LfINIVtVr7Y1ZdRU/v00Wij78yYZiQvQhzoMET/vfarwtzzX6XJx78NLAHTQ9RnlBfwKwRR4GOvPrHV4270tzTvAB30XNrOJxY4vqDMXZneHO6zY1aqTGOGd9pOO1mHHTPjMn+WbfT/D4i98wfbYFQ5Ih2vSTU/wdrS7LyZuOrJscsUvq5nQvtcooX+Ryhkzpo5/Laz2XaFm0suC8F2hvumvqV3XB+p3XfvwF0GSpDx9S7sFfEuyhqT8eS6ict2x7hANkIWmfZvSVRDTQYdOHWX1Fp28eVO+5t4WlhNW0J0zrYi/e77ClF68MYJdLPPno+rtbdN3dxvQ7Wo+Lq6INmlP1RcuspzlimxrSzypTD3PiTKJsoNnoLnm6jP2hvyTSJ3EEqWufaayHxBkOOPoX2N+lU0/1HLeqVRxW48U7mqMR+sgY0lfTQZj/p56eyAoyN1cJeBz7Q78i0dcoP/rzH696NWcEitjcP+HyDY+x1UOnngTe5dLXgGQJDWHqc3oUT/Smn/SZ+A131X3kYXRfNToJ/+t3N71esfdDpQ/9XbjsxrloQ5Uc0tD9ZIk93MbdzHnBD0OfDfaw0C+Jqy7yd+VkGMIfgOfvf39vq/Th1FP+E20K00ysAj5Yqj9AwWqvmpzsQtLiihFFp88s4GGhT2yed9SuKb7y2m3h7l6kf7yw7+wJM4er7Wf1sBzOWbNOLrFV0V43nXkyyjgNH31i738WzJpAg4zP+0FWD1J9YUh2faINXPK4kfLzh0orSnqsvxM/5PRn+UgDlvfB9Lf4VOfqvyGXW+iYUPq4ooCHw8W83aYV2EGLP+MypeayedBXTB4+1jA09El4n/OotHaP9GN5nj40ccATMQV3A4eDtJ3iSgMEmj0VvkI3dCBM6WuOvLEo89DQx5mi4A2PfycIPxfShIIAXYrp5zi7QW9z8kcn/EPKOT7P3/GXzOhbGm+W+6mhoY9NA2d3hU39Qfj5cm7bp8A5X/0E4MozzmSEaxLo19VpQ/xS/QxkQRnQzy0ua50WBmho6JOCSczmdPHr7U52K8S1KrQR/C/lVPkFF+ckNqdXaUK+nKXX21py09JrARzPWaGfT0vihIN0XWZdGR765Py0uI9S7L33VX8CuorCyeBpyj1tarPVYA9P/PpStPzZFW0EN9aqy69kcH0HkxxmfY+5gPfw0G8BnfJPFCe++55YsVFUp9pG6f0QfhlXuWJRZmLxe9iUywKuyTlR/5NzSrXYJraeotXniYt7i8NDH1eNiYO/pC3c2isvNXJu5nG14LIHL9xyAyjKzJbdAk4T8jpBJJfSXZ2pWOjzXMlJopRllQxPZPo2N8BDRJ8k9HD+Lsbf++7NH+zi4j63+6TKxhM+0Fbdclv1MilzvpvrsrClOTJ9fpNkiOiTvgAgJzAUizvPPPljLqiSDxQU4/8C2F47OuDrfMszn7Zlzr7DhYsi0heNr2GiT3JkRIeX8P/uAPDg/2LTrfbwCcX4j/gdlsJjvx0WJMb4hcnrQeqyDZI+OVoMNMlTE8Va79t/MAbCHP/g031X7xc+Hhc+4c3dAzrxX2Gjx/L82ZxBGXwA0mJeYcSKkCKcoaLPKmd81iVuFms3765/PCc44uToyhfM/sItbAtNTnT8vV0QTU6/VIXgYvrKqzMjVAKOKxkdQ0WflnICOLNEnYBqtd7Nzc6bN2924P/IMr1fXoDsHdYf3HMUjjHknP+lkR7fRJEl//cQaLK/o1TBtmWnY7jok6o9XtqPhwALTiaMg9vU3Sc8zxyTsrZQOmftaoGcofOnH4tlvKefR7oAafgK8GBNWXqGjD4x+mFnv08oecvyMNwQ5WclNTD9+JEL7vRsz5A+XPTnNcan7VWKORR95/nR5KMr2SYDpk+bA+A/N57qj5+Bz/RJ2aM2Dk7q2bx8SgnGzehDWaqvszO8zfSUzwtrTOm7beWXtRsMq8NGn1VDQceifdSfD0GAJonoFzD9y3J5/4ixN6SPJFlaysxlKiX/AvBSiMJPJqdm5BelElFmu9BvY1MS8u75qg3+CPpf3upf2+HDb9TAZ/RT5XJqH1XuxLNTn9+/spQ1kLlMybJ8GpmbEaUe+v08WbkFo3Q8TylxjxJwDujq9L828RUA4ZvYu6X0afnUQxObZyyuiNVQEP8b5bQidLyA5PbSHRVM/793Kbd2J7L+nbnJGvSd/T9IV15GAHj26qZYY3Zmb+c6zi0OdOV18WOLc6NwfIEGgBTv1FSTHYsqml1oKL9fv0L+1c3Ou29/PQf80rDGXARkdxKL0wnwH3+4+OedW7c27Ps/RlS0gTRpXec+rrMKP86BxWPX16V1bKmzNX63q4EkffZRBPLOJ3nHdV+lLsJp+4O7tUhLqZIAM3iIt/39cpIRTR6/PUX25jvqMoL4v6Gdw22rU9U3zBUccZnhltPm9LLXAKDPuZortIAQyqZC8X2c1l9o4ypt41fZGwnZ3IU4kdeNyyZo5iCx3s06ww+e3ALwsuq8OWqDvFDQ/L1DIy151zUCHRrxqDQ6dMony256Wnbdu7wNGgfnL6/2rs5O6ZiEOp0ysmK5jPNCtClXmplaIRmv+fVHGZ3bOif5vvwaLeQRjMVTnJOwzawGlhX0nvGk5h0zZCgiHaMcPYEabJseJFEkq1+i9eWtx6LKVHT2UHJq+QQ0B92nyZGS+04RrXmpspWYhDOWBxaLVNpxV96OYh2N5WHFynTX89DS76zX9ZnLIy7/A7bF4EmDp9/fAAAAAElFTkSuQmCC;" vertex="1" parent="1">
          <mxGeometry x="319.13" y="465" width="41" height="14.2" as="geometry" />
        </mxCell>
        <mxCell id="T1ir6dgXuIq2QgHA1IsL-4" value="Socket" style="rounded=0;whiteSpace=wrap;html=1;fillColor=#60a917;strokeColor=#2D7600;fontColor=#ffffff;shadow=0;" vertex="1" parent="1">
          <mxGeometry x="337.13" y="415" width="80" height="20" as="geometry" />
        </mxCell>
        <mxCell id="T1ir6dgXuIq2QgHA1IsL-5" value="TCP/IP&lt;span style=&quot;color: rgba(0 , 0 , 0 , 0) ; font-family: monospace ; font-size: 0px&quot;&gt;%3CmxGraphModel%3E%3Croot%3E%3CmxCell%20id%3D%220%22%2F%3E%3CmxCell%20id%3D%221%22%20parent%3D%220%22%2F%3E%3CmxCell%20id%3D%222%22%20value%3D%22Socket%22%20style%3D%22rounded%3D0%3BwhiteSpace%3Dwrap%3Bhtml%3D1%3B%22%20vertex%3D%221%22%20parent%3D%221%22%3E%3CmxGeometry%20x%3D%22205%22%20y%3D%22180%22%20width%3D%2280%22%20height%3D%2220%22%20as%3D%22geometry%22%2F%3E%3C%2FmxCell%3E%3C%2Froot%3E%3C%2FmxGraphModel%3E&lt;/span&gt;" style="rounded=0;whiteSpace=wrap;html=1;fillColor=#fff2cc;strokeColor=#d6b656;shadow=0;" vertex="1" parent="1">
          <mxGeometry x="336.76" y="440" width="80" height="20" as="geometry" />
        </mxCell>
        <mxCell id="T1ir6dgXuIq2QgHA1IsL-74" style="edgeStyle=orthogonalEdgeStyle;rounded=0;orthogonalLoop=1;jettySize=auto;html=1;exitX=1;exitY=0.25;exitDx=0;exitDy=0;entryX=0.75;entryY=1;entryDx=0;entryDy=0;" edge="1" parent="1" source="T1ir6dgXuIq2QgHA1IsL-32" target="T1ir6dgXuIq2QgHA1IsL-69">
          <mxGeometry relative="1" as="geometry" />
        </mxCell>
        <mxCell id="T1ir6dgXuIq2QgHA1IsL-32" value="" style="shape=image;verticalLabelPosition=bottom;labelBackgroundColor=#ffffff;verticalAlign=top;aspect=fixed;imageAspect=0;image=data:image/png,iVBORw0KGgoAAAANSUhEUgAAAX0AAACECAMAAABLTQsGAAABNVBMVEX///8BAQEAAADZ8f3/4QDp6ekAru88PDxCQkJvb2++vr6urq6lpaX29vaioqIuLi40NDTf+P//5QDX19e4uLgAsfPGxsbh+v//6AB5eXkAqu6cnJyEhITU1NRkZGTOzs7v7+8cHByCgoJPT0/h4eGSoqrI3ulRUVEmJiYODg5ycnKMjIxbW1u6z9kAmtRFTVHS6fXUuwA8Q0anusMAibxdZ2wBKTgAeKQBUG4BOU7O7vxeUwF4hoz32gApJAEzODuFlJxpdHqJ1PcAXH4Als4BJTOfsbqNnaW2oQA7u/J5awHLswDiyAAAbJTBqgA1LwFFPQEhGxY/jbCy5v8BFB0ma4iE0/dfw/MxufGk3/mYhgAARV4bFwEALkRxttaGdwGlkgByZAFxlKZPRgE7NQGVw9lgVQGq5+vfAAAUHElEQVR4nO2dC1caSRaAoRBEEBGQhxKxUYK0+H5EYyQ+4pjEmGR24655zGySze78/5+wVd31ruru6hYDG7jnzJkTpIvqr25X3Xvr1u1Y7CFkugPSSw/S8lgCZRkgyQy6G6MpJQDi8ThoDrofoykNBD8OwKD7MZLiqv6Y/mBkyoEfB91Bd2QUxSKqnxt0T0ZR6mPVH6B0XNW3x6o/AFnCE8/yoDsykrKMZ/3SoDsykpJ26U8Ouh8jKUk88dQH3ZGRlOx44hmgLI/93AHKikt/fdD9GEnJxV36M4PuyEhKDi+649j+IKSFwwytQXdkJKUyXnQHKHNj+gOU7Jj+AAXTH2/pDkQwfXvQ/RhNGc88g5TMmP6AJGdZVgbb++ONrZ8ouaVuYyXftO0mpr846B6NjmTWAZW4S3/eMrludbZr8r2xeMu0zahTAWA1MNSzhq6zrZ/QxV9WKnmFPMYPZud8r3STrsD8T+roryjLevZ4ANIV7ysbOBqa/3md/cUkl/aB7+j/lIfxk5zEV46336OKZfvCd/lrrZ85slIAMP2ze/2LSC4dwN7Fq25zWVPUNgKNAXT8/0CSpaW5end5Hslyd2ZuabElzSJTQZqPAcvr6ow9hu8ji9n5dAeo0pxdr2doqkjWCL6CeLpJr1MHZtSlNLMieU5sCscy2a3k6A5uOPytLtcuGKdcCVLq5lXsMkpHVmfmTeGja9Zg47mWO7D0U9vHHh09ya4EkBfHwBg++nq33sgLF8EBTA76hodIMp1wREOJPJMBnSk0umKtKuyVRbefY9GwBn3HQyQVES6xcU53t7a21uF/u3m7b2MA21jva46tlTQQy/LfcghuJKCBmEkv5CadC7PSrAB2D872NtrbiULVlcR2u72xd3a+1bzvCCC973Pwf15jHKtiT67PZ71HPR3cQmel8WjOO00sb9QNQZAxgvx+yiYOmid7EHshoUoBjcLVyW7EEXAvq/d9sX0U4n5nH3kMwKppC/kpj9D5ZCjwjiB3Z5G5no5s68izIYADs3fiPAOh4ee7D5HW/yiM7QtAWvvorRg24hCq6yahydAKiejn8hT+0/1N2PZJ1Y8+fgo2TvIh+QP7gUzMEPTj7tSn6YhJzIq1ALoq/2j06yTc+Le/l8vlI9j0RiB9NACJjYNQ/B+saEk4+qgjGj8vBH2nibxSACcafRvDz7c/LKTKSPl3TeijAWifh+H/UEcqwtJH8LL3o68LjUeiX8F7TPZ2IvE6lSq/NZt7XKludMzxP1TtgPD0Nc9hWPqwCelEciT6XZz/tAfXWqj8qfITiP+xKf5EIh9C+f03enWSSy5mMpWW5fedqUj2l2Q6hqaPwif3p4/P124hQ6fwGs098TD4CxshlH8qHPpSd5U4eZPz3iG5KPTjYOW+9CEmQZsi0Xfzn8CZY2YeI+W/RLd7DpdVaF1CT6uAPC1XoP+FfC/BGaiemtMPk9qcq8+KxvGkMlffi770IEagD9vgjadI9PGae+USvUD499HNdq7ae49Ptk5tkYGd3zo4e7zXRna/c0nhJMTEbxmz72qck7TeZI1EPw7S96YfF/aNItHHhwwfY32+W4Bm56WBn9Y5OLtqb8On4ywEfdM6hTMeP6q9PiJ98UB3NPp8hyLRxwVdTshs8nrz8Og3t6wdL/I/3f81D042zkPQN9tPKXkHXXQNKPTVy7S9EXbWItEXlD8S/XVu1U1U24+3uE4/OXrx9nD/cnMf3dCTy83N/f3Dty+Ont4G35v+54z8rWlP9vCnNFEumb7HlUpnhKlHoW/ShDDzK/R9bgPLPC4lBQCayfcY+i9v9zfhEuDIJpr7X6TK+J/lciq1uf8WPSHh4MdVJ0eryn6yortA+hXlAbHmVtRuiocMZPpganqGl3l9YIXbJJLpB8MHa7FFvOyeJ17iBfb26eGmyxgLwvyW/ROJOwqXhy+ehKIfbPDnVnz7q5t7gunHYsSpFL5n+dFXsrysGf8HSKFvNM1ikxO4OST20X6KJw9Bo9DPPz5CgZ8uOMKNwWWYiSe4QzkpSm43phdbrVKmQT9JK9cY0dfgF5bdYPqxWFJdHLgHSKFvNM12SU4fFEfrHbCI8eu7FLY/D46JfPj0z7u7jyk6Br+FirMF2Tw50ca3py3ylxZdiZVwhRl9zeLM98aEfsxSV1aWKRmNfoumVB5duugh2Y93Fx8SiU8L7rzT2ZZd3ONPF3flhQX4XJjDV917RcRpR/TkyVOhsDWkX7k/fVJ0jv8eXcqi0YfKj+eew7KDPnX36di1P1HU7RDe8JV2v6Vw/OEfISP8AT1p8OwnpaGq4M+VlduQvnXvmSem2YRhy25E+jly2Arslx30BC8KuqXgsnrqEeOpvgy5vxKQtVnn4StJhrl70o8p4Pg5zJD+tNIIjXRGpB/L0Lnn8OKYo3ux4AZ99KqfKJyF3FwMMHmWePhqug+hrzQSUfcDLE49fWXqYRoVlX5sje4tnvGxzbsFN9yv1/zCeVj4/qd4c/7w6eAo27KG9JfkrwmugyH9lkKfbhlFpk9/G4Atbk/9oxvt1+61FNoeB7Z86PsXSF3j4OtunXhhmj8Y0ZcTT8URNqRvPQT9ZIdcCpp7BDYKN6fg7e7pNP+xH3sXk/Khr8VT4eDrcpuT+G/q9qQZfVlrxfBwdN2nexbR6ceSTYofnLerZNF1jH3F3ExUN7b84TcPtuJKP/1Vn4usaRdnknCjrh1G9BVTXfqVyPP+vVddJEnuQAk4QVsryNpH9mZTYb/Nkhk0Oh4HHZQUsX0l/gU0Lb/fz3Kqr/s7sYfy6t6wQl/j02VtZc0VU4si2zz3tThdsfI80ZN2oXDhLrpb4nwvJJIA8Oyz5pTFhrNNud0B/Mf+UYYmg69ziDPkj5o4nUJ/vi5KV5ciLD2JhvTVUOh9vS0iDe5kAwAHexdues85W4YLBTcCzb72tVj7Jibg3t7SlJTtU+6b/udUMgy+bvOXGqOaEKdJfF9dhORwUWRflz5CCv25nLdo2q5zbcMO33453PyCTB60iVioVtsbZ1vCjQDwqjYxUdt5zo/HPucct5v0cQp4FwKL7+gy3pgnoFu4I+xtgbwVhb56StMvytbJe8pkOq8+GS0hO8chDRX55dXV1cuTg1NbQg9+3ED4ExPF3jWbtF6Uy7/RtYImPATtpyeZkmqGiT0YWnctNH0A0jJ8M/qrfs9QyN0V3a3UxYdU2lEU/mK/qhUnXKnt/IEp/1l27SS8TVwlhmmA7rMYQ1zhwv1R30hI+vp2DOgvaQ6HcxNquJ1FvSK1ptRJUnsHX3u1CSLFHgnU/QvlRDyFQ0PsowMSxPA19ln2tWKWWqz8jEc6UCj6sJmGrisK/bpwnmIx29Vl7fG31Q/6sVipEcQfsb9h7KHuf8aMz6uvU4LyJ7ZJCE+3XhLhJh6ZzBzLaPGK0YWhDyZn9GkpEfd1ubvqD32o//Pe+FEv/vjWo5OOS5+ofttNRoTK3yFm0h75m48BxvzcjjQsXMzZM0Aain6nkdU+hREzSjiG/aIfmyHE1HkOgOs3xaLAfqL4Bn8fGaevsYdMAqMFMvdo/CQiLHVKsEtz/KmUR55Xh515wIpGEaLR5wus9I1+HsO3Ff7gfU1Ue0f1v+PvbyQSVPlpGnrbxn/1PiPKNJzztJJCOptPNkRYmwe2NqsESqNlEvIeZL/ok6Ty697Oqx+yJ1uT2UN57n7fBf7aDVDQMxhVvA0Amp7Kzw5N0a9UhMSSWb8TR1HsfUUVItFf41voF/01rKw3xSJZT1m3dxTVL+5gvC8LCaL80OE9oD4yWXi93N0cNXmwW7C0LKY2rHlc6EojktpKbUbJYRYXqT7RxzuN4FnNmdKlq64V5ccjRLS9QM5gtMnCexXw0lGLBnnSsVxlWj4+2PSPEJU0sWwDa0XCHyV/X1y++0Qfn2EE74rMkmdX2T1Z+WvP3O+fYmX/hPcFaGooSTL3qkNl2SovJgExipyyy6NvRoUnLCXhz67Yku3UJ/okt9Bl+7t8b19l5e+9xxYP2Zb5iFOw6NRDrE6PeENSz8uRqaAklHmFLKiXJFnMrql+qri9EpI+XIrkjvWJPi7V+MOhXLtWNEua+Ys3OOOZbr6T3Xi2Kbbra/N7018LfINIVtVr7Y1ZdRU/v00Wij78yYZiQvQhzoMET/vfarwtzzX6XJx78NLAHTQ9RnlBfwKwRR4GOvPrHV4270tzTvAB30XNrOJxY4vqDMXZneHO6zY1aqTGOGd9pOO1mHHTPjMn+WbfT/D4i98wfbYFQ5Ih2vSTU/wdrS7LyZuOrJscsUvq5nQvtcooX+Ryhkzpo5/Laz2XaFm0suC8F2hvumvqV3XB+p3XfvwF0GSpDx9S7sFfEuyhqT8eS6ict2x7hANkIWmfZvSVRDTQYdOHWX1Fp28eVO+5t4WlhNW0J0zrYi/e77ClF68MYJdLPPno+rtbdN3dxvQ7Wo+Lq6INmlP1RcuspzlimxrSzypTD3PiTKJsoNnoLnm6jP2hvyTSJ3EEqWufaayHxBkOOPoX2N+lU0/1HLeqVRxW48U7mqMR+sgY0lfTQZj/p56eyAoyN1cJeBz7Q78i0dcoP/rzH696NWcEitjcP+HyDY+x1UOnngTe5dLXgGQJDWHqc3oUT/Smn/SZ+A131X3kYXRfNToJ/+t3N71esfdDpQ/9XbjsxrloQ5Uc0tD9ZIk93MbdzHnBD0OfDfaw0C+Jqy7yd+VkGMIfgOfvf39vq/Th1FP+E20K00ysAj5Yqj9AwWqvmpzsQtLiihFFp88s4GGhT2yed9SuKb7y2m3h7l6kf7yw7+wJM4er7Wf1sBzOWbNOLrFV0V43nXkyyjgNH31i738WzJpAg4zP+0FWD1J9YUh2faINXPK4kfLzh0orSnqsvxM/5PRn+UgDlvfB9Lf4VOfqvyGXW+iYUPq4ooCHw8W83aYV2EGLP+MypeayedBXTB4+1jA09El4n/OotHaP9GN5nj40ccATMQV3A4eDtJ3iSgMEmj0VvkI3dCBM6WuOvLEo89DQx5mi4A2PfycIPxfShIIAXYrp5zi7QW9z8kcn/EPKOT7P3/GXzOhbGm+W+6mhoY9NA2d3hU39Qfj5cm7bp8A5X/0E4MozzmSEaxLo19VpQ/xS/QxkQRnQzy0ua50WBmho6JOCSczmdPHr7U52K8S1KrQR/C/lVPkFF+ckNqdXaUK+nKXX21py09JrARzPWaGfT0vihIN0XWZdGR765Py0uI9S7L33VX8CuorCyeBpyj1tarPVYA9P/PpStPzZFW0EN9aqy69kcH0HkxxmfY+5gPfw0G8BnfJPFCe++55YsVFUp9pG6f0QfhlXuWJRZmLxe9iUywKuyTlR/5NzSrXYJraeotXniYt7i8NDH1eNiYO/pC3c2isvNXJu5nG14LIHL9xyAyjKzJbdAk4T8jpBJJfSXZ2pWOjzXMlJopRllQxPZPo2N8BDRJ8k9HD+Lsbf++7NH+zi4j63+6TKxhM+0Fbdclv1MilzvpvrsrClOTJ9fpNkiOiTvgAgJzAUizvPPPljLqiSDxQU4/8C2F47OuDrfMszn7Zlzr7DhYsi0heNr2GiT3JkRIeX8P/uAPDg/2LTrfbwCcX4j/gdlsJjvx0WJMb4hcnrQeqyDZI+OVoMNMlTE8Va79t/MAbCHP/g031X7xc+Hhc+4c3dAzrxX2Gjx/L82ZxBGXwA0mJeYcSKkCKcoaLPKmd81iVuFms3765/PCc44uToyhfM/sItbAtNTnT8vV0QTU6/VIXgYvrKqzMjVAKOKxkdQ0WflnICOLNEnYBqtd7Nzc6bN2924P/IMr1fXoDsHdYf3HMUjjHknP+lkR7fRJEl//cQaLK/o1TBtmWnY7jok6o9XtqPhwALTiaMg9vU3Sc8zxyTsrZQOmftaoGcofOnH4tlvKefR7oAafgK8GBNWXqGjD4x+mFnv08oecvyMNwQ5WclNTD9+JEL7vRsz5A+XPTnNcan7VWKORR95/nR5KMr2SYDpk+bA+A/N57qj5+Bz/RJ2aM2Dk7q2bx8SgnGzehDWaqvszO8zfSUzwtrTOm7beWXtRsMq8NGn1VDQceifdSfD0GAJonoFzD9y3J5/4ixN6SPJFlaysxlKiX/AvBSiMJPJqdm5BelElFmu9BvY1MS8u75qg3+CPpf3upf2+HDb9TAZ/RT5XJqH1XuxLNTn9+/spQ1kLlMybJ8GpmbEaUe+v08WbkFo3Q8TylxjxJwDujq9L828RUA4ZvYu6X0afnUQxObZyyuiNVQEP8b5bQidLyA5PbSHRVM/793Kbd2J7L+nbnJGvSd/T9IV15GAHj26qZYY3Zmb+c6zi0OdOV18WOLc6NwfIEGgBTv1FSTHYsqml1oKL9fv0L+1c3Ou29/PQf80rDGXARkdxKL0wnwH3+4+OedW7c27Ps/RlS0gTRpXec+rrMKP86BxWPX16V1bKmzNX63q4EkffZRBPLOJ3nHdV+lLsJp+4O7tUhLqZIAM3iIt/39cpIRTR6/PUX25jvqMoL4v6Gdw22rU9U3zBUccZnhltPm9LLXAKDPuZortIAQyqZC8X2c1l9o4ypt41fZGwnZ3IU4kdeNyyZo5iCx3s06ww+e3ALwsuq8OWqDvFDQ/L1DIy151zUCHRrxqDQ6dMony256Wnbdu7wNGgfnL6/2rs5O6ZiEOp0ysmK5jPNCtClXmplaIRmv+fVHGZ3bOif5vvwaLeQRjMVTnJOwzawGlhX0nvGk5h0zZCgiHaMcPYEabJseJFEkq1+i9eWtx6LKVHT2UHJq+QQ0B92nyZGS+04RrXmpspWYhDOWBxaLVNpxV96OYh2N5WHFynTX89DS76zX9ZnLIy7/A7bF4EmDp9/fAAAAAElFTkSuQmCC;" vertex="1" parent="1">
          <mxGeometry x="319.13" y="405" width="41" height="14.2" as="geometry" />
        </mxCell>
        <mxCell id="T1ir6dgXuIq2QgHA1IsL-33" value="" style="rounded=1;whiteSpace=wrap;html=1;" vertex="1" parent="1">
          <mxGeometry x="520.63" y="385" width="136.75" height="100" as="geometry" />
        </mxCell>
        <mxCell id="T1ir6dgXuIq2QgHA1IsL-34" value="Pod 2" style="text;html=1;strokeColor=none;fillColor=none;align=center;verticalAlign=middle;whiteSpace=wrap;rounded=0;" vertex="1" parent="1">
          <mxGeometry x="538.13" y="385" width="40" height="20" as="geometry" />
        </mxCell>
        <mxCell id="T1ir6dgXuIq2QgHA1IsL-35" value="eth0" style="rounded=0;whiteSpace=wrap;html=1;fillColor=#FFFFFF;" vertex="1" parent="1">
          <mxGeometry x="557.38" y="465" width="77.5" height="20" as="geometry" />
        </mxCell>
        <mxCell id="T1ir6dgXuIq2QgHA1IsL-36" value="" style="shape=image;verticalLabelPosition=bottom;labelBackgroundColor=#ffffff;verticalAlign=top;aspect=fixed;imageAspect=0;image=data:image/png,iVBORw0KGgoAAAANSUhEUgAAAX0AAACECAMAAABLTQsGAAABNVBMVEX///8BAQEAAADZ8f3/4QDp6ekAru88PDxCQkJvb2++vr6urq6lpaX29vaioqIuLi40NDTf+P//5QDX19e4uLgAsfPGxsbh+v//6AB5eXkAqu6cnJyEhITU1NRkZGTOzs7v7+8cHByCgoJPT0/h4eGSoqrI3ulRUVEmJiYODg5ycnKMjIxbW1u6z9kAmtRFTVHS6fXUuwA8Q0anusMAibxdZ2wBKTgAeKQBUG4BOU7O7vxeUwF4hoz32gApJAEzODuFlJxpdHqJ1PcAXH4Als4BJTOfsbqNnaW2oQA7u/J5awHLswDiyAAAbJTBqgA1LwFFPQEhGxY/jbCy5v8BFB0ma4iE0/dfw/MxufGk3/mYhgAARV4bFwEALkRxttaGdwGlkgByZAFxlKZPRgE7NQGVw9lgVQGq5+vfAAAUHElEQVR4nO2dC1caSRaAoRBEEBGQhxKxUYK0+H5EYyQ+4pjEmGR24655zGySze78/5+wVd31ruru6hYDG7jnzJkTpIvqr25X3Xvr1u1Y7CFkugPSSw/S8lgCZRkgyQy6G6MpJQDi8ThoDrofoykNBD8OwKD7MZLiqv6Y/mBkyoEfB91Bd2QUxSKqnxt0T0ZR6mPVH6B0XNW3x6o/AFnCE8/yoDsykrKMZ/3SoDsykpJ26U8Ouh8jKUk88dQH3ZGRlOx44hmgLI/93AHKikt/fdD9GEnJxV36M4PuyEhKDi+649j+IKSFwwytQXdkJKUyXnQHKHNj+gOU7Jj+AAXTH2/pDkQwfXvQ/RhNGc88g5TMmP6AJGdZVgbb++ONrZ8ouaVuYyXftO0mpr846B6NjmTWAZW4S3/eMrludbZr8r2xeMu0zahTAWA1MNSzhq6zrZ/QxV9WKnmFPMYPZud8r3STrsD8T+roryjLevZ4ANIV7ysbOBqa/3md/cUkl/aB7+j/lIfxk5zEV46336OKZfvCd/lrrZ85slIAMP2ze/2LSC4dwN7Fq25zWVPUNgKNAXT8/0CSpaW5end5Hslyd2ZuabElzSJTQZqPAcvr6ow9hu8ji9n5dAeo0pxdr2doqkjWCL6CeLpJr1MHZtSlNLMieU5sCscy2a3k6A5uOPytLtcuGKdcCVLq5lXsMkpHVmfmTeGja9Zg47mWO7D0U9vHHh09ya4EkBfHwBg++nq33sgLF8EBTA76hodIMp1wREOJPJMBnSk0umKtKuyVRbefY9GwBn3HQyQVES6xcU53t7a21uF/u3m7b2MA21jva46tlTQQy/LfcghuJKCBmEkv5CadC7PSrAB2D872NtrbiULVlcR2u72xd3a+1bzvCCC973Pwf15jHKtiT67PZ71HPR3cQmel8WjOO00sb9QNQZAxgvx+yiYOmid7EHshoUoBjcLVyW7EEXAvq/d9sX0U4n5nH3kMwKppC/kpj9D5ZCjwjiB3Z5G5no5s68izIYADs3fiPAOh4ee7D5HW/yiM7QtAWvvorRg24hCq6yahydAKiejn8hT+0/1N2PZJ1Y8+fgo2TvIh+QP7gUzMEPTj7tSn6YhJzIq1ALoq/2j06yTc+Le/l8vlI9j0RiB9NACJjYNQ/B+saEk4+qgjGj8vBH2nibxSACcafRvDz7c/LKTKSPl3TeijAWifh+H/UEcqwtJH8LL3o68LjUeiX8F7TPZ2IvE6lSq/NZt7XKludMzxP1TtgPD0Nc9hWPqwCelEciT6XZz/tAfXWqj8qfITiP+xKf5EIh9C+f03enWSSy5mMpWW5fedqUj2l2Q6hqaPwif3p4/P124hQ6fwGs098TD4CxshlH8qHPpSd5U4eZPz3iG5KPTjYOW+9CEmQZsi0Xfzn8CZY2YeI+W/RLd7DpdVaF1CT6uAPC1XoP+FfC/BGaiemtMPk9qcq8+KxvGkMlffi770IEagD9vgjadI9PGae+USvUD499HNdq7ae49Ptk5tkYGd3zo4e7zXRna/c0nhJMTEbxmz72qck7TeZI1EPw7S96YfF/aNItHHhwwfY32+W4Bm56WBn9Y5OLtqb8On4ywEfdM6hTMeP6q9PiJ98UB3NPp8hyLRxwVdTshs8nrz8Og3t6wdL/I/3f81D042zkPQN9tPKXkHXXQNKPTVy7S9EXbWItEXlD8S/XVu1U1U24+3uE4/OXrx9nD/cnMf3dCTy83N/f3Dty+Ont4G35v+54z8rWlP9vCnNFEumb7HlUpnhKlHoW/ShDDzK/R9bgPLPC4lBQCayfcY+i9v9zfhEuDIJpr7X6TK+J/lciq1uf8WPSHh4MdVJ0eryn6yortA+hXlAbHmVtRuiocMZPpganqGl3l9YIXbJJLpB8MHa7FFvOyeJ17iBfb26eGmyxgLwvyW/ROJOwqXhy+ehKIfbPDnVnz7q5t7gunHYsSpFL5n+dFXsrysGf8HSKFvNM1ikxO4OST20X6KJw9Bo9DPPz5CgZ8uOMKNwWWYiSe4QzkpSm43phdbrVKmQT9JK9cY0dfgF5bdYPqxWFJdHLgHSKFvNM12SU4fFEfrHbCI8eu7FLY/D46JfPj0z7u7jyk6Br+FirMF2Tw50ca3py3ylxZdiZVwhRl9zeLM98aEfsxSV1aWKRmNfoumVB5duugh2Y93Fx8SiU8L7rzT2ZZd3ONPF3flhQX4XJjDV917RcRpR/TkyVOhsDWkX7k/fVJ0jv8eXcqi0YfKj+eew7KDPnX36di1P1HU7RDe8JV2v6Vw/OEfISP8AT1p8OwnpaGq4M+VlduQvnXvmSem2YRhy25E+jly2Arslx30BC8KuqXgsnrqEeOpvgy5vxKQtVnn4StJhrl70o8p4Pg5zJD+tNIIjXRGpB/L0Lnn8OKYo3ux4AZ99KqfKJyF3FwMMHmWePhqug+hrzQSUfcDLE49fWXqYRoVlX5sje4tnvGxzbsFN9yv1/zCeVj4/qd4c/7w6eAo27KG9JfkrwmugyH9lkKfbhlFpk9/G4Atbk/9oxvt1+61FNoeB7Z86PsXSF3j4OtunXhhmj8Y0ZcTT8URNqRvPQT9ZIdcCpp7BDYKN6fg7e7pNP+xH3sXk/Khr8VT4eDrcpuT+G/q9qQZfVlrxfBwdN2nexbR6ceSTYofnLerZNF1jH3F3ExUN7b84TcPtuJKP/1Vn4usaRdnknCjrh1G9BVTXfqVyPP+vVddJEnuQAk4QVsryNpH9mZTYb/Nkhk0Oh4HHZQUsX0l/gU0Lb/fz3Kqr/s7sYfy6t6wQl/j02VtZc0VU4si2zz3tThdsfI80ZN2oXDhLrpb4nwvJJIA8Oyz5pTFhrNNud0B/Mf+UYYmg69ziDPkj5o4nUJ/vi5KV5ciLD2JhvTVUOh9vS0iDe5kAwAHexdues85W4YLBTcCzb72tVj7Jibg3t7SlJTtU+6b/udUMgy+bvOXGqOaEKdJfF9dhORwUWRflz5CCv25nLdo2q5zbcMO33453PyCTB60iVioVtsbZ1vCjQDwqjYxUdt5zo/HPucct5v0cQp4FwKL7+gy3pgnoFu4I+xtgbwVhb56StMvytbJe8pkOq8+GS0hO8chDRX55dXV1cuTg1NbQg9+3ED4ExPF3jWbtF6Uy7/RtYImPATtpyeZkmqGiT0YWnctNH0A0jJ8M/qrfs9QyN0V3a3UxYdU2lEU/mK/qhUnXKnt/IEp/1l27SS8TVwlhmmA7rMYQ1zhwv1R30hI+vp2DOgvaQ6HcxNquJ1FvSK1ptRJUnsHX3u1CSLFHgnU/QvlRDyFQ0PsowMSxPA19ln2tWKWWqz8jEc6UCj6sJmGrisK/bpwnmIx29Vl7fG31Q/6sVipEcQfsb9h7KHuf8aMz6uvU4LyJ7ZJCE+3XhLhJh6ZzBzLaPGK0YWhDyZn9GkpEfd1ubvqD32o//Pe+FEv/vjWo5OOS5+ofttNRoTK3yFm0h75m48BxvzcjjQsXMzZM0Aain6nkdU+hREzSjiG/aIfmyHE1HkOgOs3xaLAfqL4Bn8fGaevsYdMAqMFMvdo/CQiLHVKsEtz/KmUR55Xh515wIpGEaLR5wus9I1+HsO3Ff7gfU1Ue0f1v+PvbyQSVPlpGnrbxn/1PiPKNJzztJJCOptPNkRYmwe2NqsESqNlEvIeZL/ok6Ty697Oqx+yJ1uT2UN57n7fBf7aDVDQMxhVvA0Amp7Kzw5N0a9UhMSSWb8TR1HsfUUVItFf41voF/01rKw3xSJZT1m3dxTVL+5gvC8LCaL80OE9oD4yWXi93N0cNXmwW7C0LKY2rHlc6EojktpKbUbJYRYXqT7RxzuN4FnNmdKlq64V5ccjRLS9QM5gtMnCexXw0lGLBnnSsVxlWj4+2PSPEJU0sWwDa0XCHyV/X1y++0Qfn2EE74rMkmdX2T1Z+WvP3O+fYmX/hPcFaGooSTL3qkNl2SovJgExipyyy6NvRoUnLCXhz67Yku3UJ/okt9Bl+7t8b19l5e+9xxYP2Zb5iFOw6NRDrE6PeENSz8uRqaAklHmFLKiXJFnMrql+qri9EpI+XIrkjvWJPi7V+MOhXLtWNEua+Ys3OOOZbr6T3Xi2Kbbra/N7018LfINIVtVr7Y1ZdRU/v00Wij78yYZiQvQhzoMET/vfarwtzzX6XJx78NLAHTQ9RnlBfwKwRR4GOvPrHV4270tzTvAB30XNrOJxY4vqDMXZneHO6zY1aqTGOGd9pOO1mHHTPjMn+WbfT/D4i98wfbYFQ5Ih2vSTU/wdrS7LyZuOrJscsUvq5nQvtcooX+Ryhkzpo5/Laz2XaFm0suC8F2hvumvqV3XB+p3XfvwF0GSpDx9S7sFfEuyhqT8eS6ict2x7hANkIWmfZvSVRDTQYdOHWX1Fp28eVO+5t4WlhNW0J0zrYi/e77ClF68MYJdLPPno+rtbdN3dxvQ7Wo+Lq6INmlP1RcuspzlimxrSzypTD3PiTKJsoNnoLnm6jP2hvyTSJ3EEqWufaayHxBkOOPoX2N+lU0/1HLeqVRxW48U7mqMR+sgY0lfTQZj/p56eyAoyN1cJeBz7Q78i0dcoP/rzH696NWcEitjcP+HyDY+x1UOnngTe5dLXgGQJDWHqc3oUT/Smn/SZ+A131X3kYXRfNToJ/+t3N71esfdDpQ/9XbjsxrloQ5Uc0tD9ZIk93MbdzHnBD0OfDfaw0C+Jqy7yd+VkGMIfgOfvf39vq/Th1FP+E20K00ysAj5Yqj9AwWqvmpzsQtLiihFFp88s4GGhT2yed9SuKb7y2m3h7l6kf7yw7+wJM4er7Wf1sBzOWbNOLrFV0V43nXkyyjgNH31i738WzJpAg4zP+0FWD1J9YUh2faINXPK4kfLzh0orSnqsvxM/5PRn+UgDlvfB9Lf4VOfqvyGXW+iYUPq4ooCHw8W83aYV2EGLP+MypeayedBXTB4+1jA09El4n/OotHaP9GN5nj40ccATMQV3A4eDtJ3iSgMEmj0VvkI3dCBM6WuOvLEo89DQx5mi4A2PfycIPxfShIIAXYrp5zi7QW9z8kcn/EPKOT7P3/GXzOhbGm+W+6mhoY9NA2d3hU39Qfj5cm7bp8A5X/0E4MozzmSEaxLo19VpQ/xS/QxkQRnQzy0ua50WBmho6JOCSczmdPHr7U52K8S1KrQR/C/lVPkFF+ckNqdXaUK+nKXX21py09JrARzPWaGfT0vihIN0XWZdGR765Py0uI9S7L33VX8CuorCyeBpyj1tarPVYA9P/PpStPzZFW0EN9aqy69kcH0HkxxmfY+5gPfw0G8BnfJPFCe++55YsVFUp9pG6f0QfhlXuWJRZmLxe9iUywKuyTlR/5NzSrXYJraeotXniYt7i8NDH1eNiYO/pC3c2isvNXJu5nG14LIHL9xyAyjKzJbdAk4T8jpBJJfSXZ2pWOjzXMlJopRllQxPZPo2N8BDRJ8k9HD+Lsbf++7NH+zi4j63+6TKxhM+0Fbdclv1MilzvpvrsrClOTJ9fpNkiOiTvgAgJzAUizvPPPljLqiSDxQU4/8C2F47OuDrfMszn7Zlzr7DhYsi0heNr2GiT3JkRIeX8P/uAPDg/2LTrfbwCcX4j/gdlsJjvx0WJMb4hcnrQeqyDZI+OVoMNMlTE8Va79t/MAbCHP/g031X7xc+Hhc+4c3dAzrxX2Gjx/L82ZxBGXwA0mJeYcSKkCKcoaLPKmd81iVuFms3765/PCc44uToyhfM/sItbAtNTnT8vV0QTU6/VIXgYvrKqzMjVAKOKxkdQ0WflnICOLNEnYBqtd7Nzc6bN2924P/IMr1fXoDsHdYf3HMUjjHknP+lkR7fRJEl//cQaLK/o1TBtmWnY7jok6o9XtqPhwALTiaMg9vU3Sc8zxyTsrZQOmftaoGcofOnH4tlvKefR7oAafgK8GBNWXqGjD4x+mFnv08oecvyMNwQ5WclNTD9+JEL7vRsz5A+XPTnNcan7VWKORR95/nR5KMr2SYDpk+bA+A/N57qj5+Bz/RJ2aM2Dk7q2bx8SgnGzehDWaqvszO8zfSUzwtrTOm7beWXtRsMq8NGn1VDQceifdSfD0GAJonoFzD9y3J5/4ixN6SPJFlaysxlKiX/AvBSiMJPJqdm5BelElFmu9BvY1MS8u75qg3+CPpf3upf2+HDb9TAZ/RT5XJqH1XuxLNTn9+/spQ1kLlMybJ8GpmbEaUe+v08WbkFo3Q8TylxjxJwDujq9L828RUA4ZvYu6X0afnUQxObZyyuiNVQEP8b5bQidLyA5PbSHRVM/793Kbd2J7L+nbnJGvSd/T9IV15GAHj26qZYY3Zmb+c6zi0OdOV18WOLc6NwfIEGgBTv1FSTHYsqml1oKL9fv0L+1c3Ou29/PQf80rDGXARkdxKL0wnwH3+4+OedW7c27Ps/RlS0gTRpXec+rrMKP86BxWPX16V1bKmzNX63q4EkffZRBPLOJ3nHdV+lLsJp+4O7tUhLqZIAM3iIt/39cpIRTR6/PUX25jvqMoL4v6Gdw22rU9U3zBUccZnhltPm9LLXAKDPuZortIAQyqZC8X2c1l9o4ypt41fZGwnZ3IU4kdeNyyZo5iCx3s06ww+e3ALwsuq8OWqDvFDQ/L1DIy151zUCHRrxqDQ6dMony256Wnbdu7wNGgfnL6/2rs5O6ZiEOp0ysmK5jPNCtClXmplaIRmv+fVHGZ3bOif5vvwaLeQRjMVTnJOwzawGlhX0nvGk5h0zZCgiHaMcPYEabJseJFEkq1+i9eWtx6LKVHT2UHJq+QQ0B92nyZGS+04RrXmpspWYhDOWBxaLVNpxV96OYh2N5WHFynTX89DS76zX9ZnLIy7/A7bF4EmDp9/fAAAAAElFTkSuQmCC;" vertex="1" parent="1">
          <mxGeometry x="538.13" y="465" width="41" height="14.2" as="geometry" />
        </mxCell>
        <mxCell id="T1ir6dgXuIq2QgHA1IsL-37" value="Socket" style="rounded=0;whiteSpace=wrap;html=1;fillColor=#60a917;strokeColor=#2D7600;fontColor=#ffffff;shadow=0;" vertex="1" parent="1">
          <mxGeometry x="556.13" y="415" width="80" height="20" as="geometry" />
        </mxCell>
        <mxCell id="T1ir6dgXuIq2QgHA1IsL-38" value="TCP/IP&lt;span style=&quot;color: rgba(0 , 0 , 0 , 0) ; font-family: monospace ; font-size: 0px&quot;&gt;%3CmxGraphModel%3E%3Croot%3E%3CmxCell%20id%3D%220%22%2F%3E%3CmxCell%20id%3D%221%22%20parent%3D%220%22%2F%3E%3CmxCell%20id%3D%222%22%20value%3D%22Socket%22%20style%3D%22rounded%3D0%3BwhiteSpace%3Dwrap%3Bhtml%3D1%3B%22%20vertex%3D%221%22%20parent%3D%221%22%3E%3CmxGeometry%20x%3D%22205%22%20y%3D%22180%22%20width%3D%2280%22%20height%3D%2220%22%20as%3D%22geometry%22%2F%3E%3C%2FmxCell%3E%3C%2Froot%3E%3C%2FmxGraphModel%3E&lt;/span&gt;" style="rounded=0;whiteSpace=wrap;html=1;fillColor=#fff2cc;strokeColor=#d6b656;shadow=0;" vertex="1" parent="1">
          <mxGeometry x="555.76" y="440" width="80" height="20" as="geometry" />
        </mxCell>
        <mxCell id="T1ir6dgXuIq2QgHA1IsL-81" style="edgeStyle=orthogonalEdgeStyle;rounded=0;orthogonalLoop=1;jettySize=auto;html=1;exitX=1;exitY=0;exitDx=0;exitDy=0;entryX=0.25;entryY=1;entryDx=0;entryDy=0;fillColor=default;" edge="1" parent="1" source="T1ir6dgXuIq2QgHA1IsL-39" target="T1ir6dgXuIq2QgHA1IsL-79">
          <mxGeometry relative="1" as="geometry" />
        </mxCell>
        <mxCell id="T1ir6dgXuIq2QgHA1IsL-39" value="" style="shape=image;verticalLabelPosition=bottom;labelBackgroundColor=#ffffff;verticalAlign=top;aspect=fixed;imageAspect=0;image=data:image/png,iVBORw0KGgoAAAANSUhEUgAAAX0AAACECAMAAABLTQsGAAABNVBMVEX///8BAQEAAADZ8f3/4QDp6ekAru88PDxCQkJvb2++vr6urq6lpaX29vaioqIuLi40NDTf+P//5QDX19e4uLgAsfPGxsbh+v//6AB5eXkAqu6cnJyEhITU1NRkZGTOzs7v7+8cHByCgoJPT0/h4eGSoqrI3ulRUVEmJiYODg5ycnKMjIxbW1u6z9kAmtRFTVHS6fXUuwA8Q0anusMAibxdZ2wBKTgAeKQBUG4BOU7O7vxeUwF4hoz32gApJAEzODuFlJxpdHqJ1PcAXH4Als4BJTOfsbqNnaW2oQA7u/J5awHLswDiyAAAbJTBqgA1LwFFPQEhGxY/jbCy5v8BFB0ma4iE0/dfw/MxufGk3/mYhgAARV4bFwEALkRxttaGdwGlkgByZAFxlKZPRgE7NQGVw9lgVQGq5+vfAAAUHElEQVR4nO2dC1caSRaAoRBEEBGQhxKxUYK0+H5EYyQ+4pjEmGR24655zGySze78/5+wVd31ruru6hYDG7jnzJkTpIvqr25X3Xvr1u1Y7CFkugPSSw/S8lgCZRkgyQy6G6MpJQDi8ThoDrofoykNBD8OwKD7MZLiqv6Y/mBkyoEfB91Bd2QUxSKqnxt0T0ZR6mPVH6B0XNW3x6o/AFnCE8/yoDsykrKMZ/3SoDsykpJ26U8Ouh8jKUk88dQH3ZGRlOx44hmgLI/93AHKikt/fdD9GEnJxV36M4PuyEhKDi+649j+IKSFwwytQXdkJKUyXnQHKHNj+gOU7Jj+AAXTH2/pDkQwfXvQ/RhNGc88g5TMmP6AJGdZVgbb++ONrZ8ouaVuYyXftO0mpr846B6NjmTWAZW4S3/eMrludbZr8r2xeMu0zahTAWA1MNSzhq6zrZ/QxV9WKnmFPMYPZud8r3STrsD8T+roryjLevZ4ANIV7ysbOBqa/3md/cUkl/aB7+j/lIfxk5zEV46336OKZfvCd/lrrZ85slIAMP2ze/2LSC4dwN7Fq25zWVPUNgKNAXT8/0CSpaW5end5Hslyd2ZuabElzSJTQZqPAcvr6ow9hu8ji9n5dAeo0pxdr2doqkjWCL6CeLpJr1MHZtSlNLMieU5sCscy2a3k6A5uOPytLtcuGKdcCVLq5lXsMkpHVmfmTeGja9Zg47mWO7D0U9vHHh09ya4EkBfHwBg++nq33sgLF8EBTA76hodIMp1wREOJPJMBnSk0umKtKuyVRbefY9GwBn3HQyQVES6xcU53t7a21uF/u3m7b2MA21jva46tlTQQy/LfcghuJKCBmEkv5CadC7PSrAB2D872NtrbiULVlcR2u72xd3a+1bzvCCC973Pwf15jHKtiT67PZ71HPR3cQmel8WjOO00sb9QNQZAxgvx+yiYOmid7EHshoUoBjcLVyW7EEXAvq/d9sX0U4n5nH3kMwKppC/kpj9D5ZCjwjiB3Z5G5no5s68izIYADs3fiPAOh4ee7D5HW/yiM7QtAWvvorRg24hCq6yahydAKiejn8hT+0/1N2PZJ1Y8+fgo2TvIh+QP7gUzMEPTj7tSn6YhJzIq1ALoq/2j06yTc+Le/l8vlI9j0RiB9NACJjYNQ/B+saEk4+qgjGj8vBH2nibxSACcafRvDz7c/LKTKSPl3TeijAWifh+H/UEcqwtJH8LL3o68LjUeiX8F7TPZ2IvE6lSq/NZt7XKludMzxP1TtgPD0Nc9hWPqwCelEciT6XZz/tAfXWqj8qfITiP+xKf5EIh9C+f03enWSSy5mMpWW5fedqUj2l2Q6hqaPwif3p4/P124hQ6fwGs098TD4CxshlH8qHPpSd5U4eZPz3iG5KPTjYOW+9CEmQZsi0Xfzn8CZY2YeI+W/RLd7DpdVaF1CT6uAPC1XoP+FfC/BGaiemtMPk9qcq8+KxvGkMlffi770IEagD9vgjadI9PGae+USvUD499HNdq7ae49Ptk5tkYGd3zo4e7zXRna/c0nhJMTEbxmz72qck7TeZI1EPw7S96YfF/aNItHHhwwfY32+W4Bm56WBn9Y5OLtqb8On4ywEfdM6hTMeP6q9PiJ98UB3NPp8hyLRxwVdTshs8nrz8Og3t6wdL/I/3f81D042zkPQN9tPKXkHXXQNKPTVy7S9EXbWItEXlD8S/XVu1U1U24+3uE4/OXrx9nD/cnMf3dCTy83N/f3Dty+Ont4G35v+54z8rWlP9vCnNFEumb7HlUpnhKlHoW/ShDDzK/R9bgPLPC4lBQCayfcY+i9v9zfhEuDIJpr7X6TK+J/lciq1uf8WPSHh4MdVJ0eryn6yortA+hXlAbHmVtRuiocMZPpganqGl3l9YIXbJJLpB8MHa7FFvOyeJ17iBfb26eGmyxgLwvyW/ROJOwqXhy+ehKIfbPDnVnz7q5t7gunHYsSpFL5n+dFXsrysGf8HSKFvNM1ikxO4OST20X6KJw9Bo9DPPz5CgZ8uOMKNwWWYiSe4QzkpSm43phdbrVKmQT9JK9cY0dfgF5bdYPqxWFJdHLgHSKFvNM12SU4fFEfrHbCI8eu7FLY/D46JfPj0z7u7jyk6Br+FirMF2Tw50ca3py3ylxZdiZVwhRl9zeLM98aEfsxSV1aWKRmNfoumVB5duugh2Y93Fx8SiU8L7rzT2ZZd3ONPF3flhQX4XJjDV917RcRpR/TkyVOhsDWkX7k/fVJ0jv8eXcqi0YfKj+eew7KDPnX36di1P1HU7RDe8JV2v6Vw/OEfISP8AT1p8OwnpaGq4M+VlduQvnXvmSem2YRhy25E+jly2Arslx30BC8KuqXgsnrqEeOpvgy5vxKQtVnn4StJhrl70o8p4Pg5zJD+tNIIjXRGpB/L0Lnn8OKYo3ux4AZ99KqfKJyF3FwMMHmWePhqug+hrzQSUfcDLE49fWXqYRoVlX5sje4tnvGxzbsFN9yv1/zCeVj4/qd4c/7w6eAo27KG9JfkrwmugyH9lkKfbhlFpk9/G4Atbk/9oxvt1+61FNoeB7Z86PsXSF3j4OtunXhhmj8Y0ZcTT8URNqRvPQT9ZIdcCpp7BDYKN6fg7e7pNP+xH3sXk/Khr8VT4eDrcpuT+G/q9qQZfVlrxfBwdN2nexbR6ceSTYofnLerZNF1jH3F3ExUN7b84TcPtuJKP/1Vn4usaRdnknCjrh1G9BVTXfqVyPP+vVddJEnuQAk4QVsryNpH9mZTYb/Nkhk0Oh4HHZQUsX0l/gU0Lb/fz3Kqr/s7sYfy6t6wQl/j02VtZc0VU4si2zz3tThdsfI80ZN2oXDhLrpb4nwvJJIA8Oyz5pTFhrNNud0B/Mf+UYYmg69ziDPkj5o4nUJ/vi5KV5ciLD2JhvTVUOh9vS0iDe5kAwAHexdues85W4YLBTcCzb72tVj7Jibg3t7SlJTtU+6b/udUMgy+bvOXGqOaEKdJfF9dhORwUWRflz5CCv25nLdo2q5zbcMO33453PyCTB60iVioVtsbZ1vCjQDwqjYxUdt5zo/HPucct5v0cQp4FwKL7+gy3pgnoFu4I+xtgbwVhb56StMvytbJe8pkOq8+GS0hO8chDRX55dXV1cuTg1NbQg9+3ED4ExPF3jWbtF6Uy7/RtYImPATtpyeZkmqGiT0YWnctNH0A0jJ8M/qrfs9QyN0V3a3UxYdU2lEU/mK/qhUnXKnt/IEp/1l27SS8TVwlhmmA7rMYQ1zhwv1R30hI+vp2DOgvaQ6HcxNquJ1FvSK1ptRJUnsHX3u1CSLFHgnU/QvlRDyFQ0PsowMSxPA19ln2tWKWWqz8jEc6UCj6sJmGrisK/bpwnmIx29Vl7fG31Q/6sVipEcQfsb9h7KHuf8aMz6uvU4LyJ7ZJCE+3XhLhJh6ZzBzLaPGK0YWhDyZn9GkpEfd1ubvqD32o//Pe+FEv/vjWo5OOS5+ofttNRoTK3yFm0h75m48BxvzcjjQsXMzZM0Aain6nkdU+hREzSjiG/aIfmyHE1HkOgOs3xaLAfqL4Bn8fGaevsYdMAqMFMvdo/CQiLHVKsEtz/KmUR55Xh515wIpGEaLR5wus9I1+HsO3Ff7gfU1Ue0f1v+PvbyQSVPlpGnrbxn/1PiPKNJzztJJCOptPNkRYmwe2NqsESqNlEvIeZL/ok6Ty697Oqx+yJ1uT2UN57n7fBf7aDVDQMxhVvA0Amp7Kzw5N0a9UhMSSWb8TR1HsfUUVItFf41voF/01rKw3xSJZT1m3dxTVL+5gvC8LCaL80OE9oD4yWXi93N0cNXmwW7C0LKY2rHlc6EojktpKbUbJYRYXqT7RxzuN4FnNmdKlq64V5ccjRLS9QM5gtMnCexXw0lGLBnnSsVxlWj4+2PSPEJU0sWwDa0XCHyV/X1y++0Qfn2EE74rMkmdX2T1Z+WvP3O+fYmX/hPcFaGooSTL3qkNl2SovJgExipyyy6NvRoUnLCXhz67Yku3UJ/okt9Bl+7t8b19l5e+9xxYP2Zb5iFOw6NRDrE6PeENSz8uRqaAklHmFLKiXJFnMrql+qri9EpI+XIrkjvWJPi7V+MOhXLtWNEua+Ys3OOOZbr6T3Xi2Kbbra/N7018LfINIVtVr7Y1ZdRU/v00Wij78yYZiQvQhzoMET/vfarwtzzX6XJx78NLAHTQ9RnlBfwKwRR4GOvPrHV4270tzTvAB30XNrOJxY4vqDMXZneHO6zY1aqTGOGd9pOO1mHHTPjMn+WbfT/D4i98wfbYFQ5Ih2vSTU/wdrS7LyZuOrJscsUvq5nQvtcooX+Ryhkzpo5/Laz2XaFm0suC8F2hvumvqV3XB+p3XfvwF0GSpDx9S7sFfEuyhqT8eS6ict2x7hANkIWmfZvSVRDTQYdOHWX1Fp28eVO+5t4WlhNW0J0zrYi/e77ClF68MYJdLPPno+rtbdN3dxvQ7Wo+Lq6INmlP1RcuspzlimxrSzypTD3PiTKJsoNnoLnm6jP2hvyTSJ3EEqWufaayHxBkOOPoX2N+lU0/1HLeqVRxW48U7mqMR+sgY0lfTQZj/p56eyAoyN1cJeBz7Q78i0dcoP/rzH696NWcEitjcP+HyDY+x1UOnngTe5dLXgGQJDWHqc3oUT/Smn/SZ+A131X3kYXRfNToJ/+t3N71esfdDpQ/9XbjsxrloQ5Uc0tD9ZIk93MbdzHnBD0OfDfaw0C+Jqy7yd+VkGMIfgOfvf39vq/Th1FP+E20K00ysAj5Yqj9AwWqvmpzsQtLiihFFp88s4GGhT2yed9SuKb7y2m3h7l6kf7yw7+wJM4er7Wf1sBzOWbNOLrFV0V43nXkyyjgNH31i738WzJpAg4zP+0FWD1J9YUh2faINXPK4kfLzh0orSnqsvxM/5PRn+UgDlvfB9Lf4VOfqvyGXW+iYUPq4ooCHw8W83aYV2EGLP+MypeayedBXTB4+1jA09El4n/OotHaP9GN5nj40ccATMQV3A4eDtJ3iSgMEmj0VvkI3dCBM6WuOvLEo89DQx5mi4A2PfycIPxfShIIAXYrp5zi7QW9z8kcn/EPKOT7P3/GXzOhbGm+W+6mhoY9NA2d3hU39Qfj5cm7bp8A5X/0E4MozzmSEaxLo19VpQ/xS/QxkQRnQzy0ua50WBmho6JOCSczmdPHr7U52K8S1KrQR/C/lVPkFF+ckNqdXaUK+nKXX21py09JrARzPWaGfT0vihIN0XWZdGR765Py0uI9S7L33VX8CuorCyeBpyj1tarPVYA9P/PpStPzZFW0EN9aqy69kcH0HkxxmfY+5gPfw0G8BnfJPFCe++55YsVFUp9pG6f0QfhlXuWJRZmLxe9iUywKuyTlR/5NzSrXYJraeotXniYt7i8NDH1eNiYO/pC3c2isvNXJu5nG14LIHL9xyAyjKzJbdAk4T8jpBJJfSXZ2pWOjzXMlJopRllQxPZPo2N8BDRJ8k9HD+Lsbf++7NH+zi4j63+6TKxhM+0Fbdclv1MilzvpvrsrClOTJ9fpNkiOiTvgAgJzAUizvPPPljLqiSDxQU4/8C2F47OuDrfMszn7Zlzr7DhYsi0heNr2GiT3JkRIeX8P/uAPDg/2LTrfbwCcX4j/gdlsJjvx0WJMb4hcnrQeqyDZI+OVoMNMlTE8Va79t/MAbCHP/g031X7xc+Hhc+4c3dAzrxX2Gjx/L82ZxBGXwA0mJeYcSKkCKcoaLPKmd81iVuFms3765/PCc44uToyhfM/sItbAtNTnT8vV0QTU6/VIXgYvrKqzMjVAKOKxkdQ0WflnICOLNEnYBqtd7Nzc6bN2924P/IMr1fXoDsHdYf3HMUjjHknP+lkR7fRJEl//cQaLK/o1TBtmWnY7jok6o9XtqPhwALTiaMg9vU3Sc8zxyTsrZQOmftaoGcofOnH4tlvKefR7oAafgK8GBNWXqGjD4x+mFnv08oecvyMNwQ5WclNTD9+JEL7vRsz5A+XPTnNcan7VWKORR95/nR5KMr2SYDpk+bA+A/N57qj5+Bz/RJ2aM2Dk7q2bx8SgnGzehDWaqvszO8zfSUzwtrTOm7beWXtRsMq8NGn1VDQceifdSfD0GAJonoFzD9y3J5/4ixN6SPJFlaysxlKiX/AvBSiMJPJqdm5BelElFmu9BvY1MS8u75qg3+CPpf3upf2+HDb9TAZ/RT5XJqH1XuxLNTn9+/spQ1kLlMybJ8GpmbEaUe+v08WbkFo3Q8TylxjxJwDujq9L828RUA4ZvYu6X0afnUQxObZyyuiNVQEP8b5bQidLyA5PbSHRVM/793Kbd2J7L+nbnJGvSd/T9IV15GAHj26qZYY3Zmb+c6zi0OdOV18WOLc6NwfIEGgBTv1FSTHYsqml1oKL9fv0L+1c3Ou29/PQf80rDGXARkdxKL0wnwH3+4+OedW7c27Ps/RlS0gTRpXec+rrMKP86BxWPX16V1bKmzNX63q4EkffZRBPLOJ3nHdV+lLsJp+4O7tUhLqZIAM3iIt/39cpIRTR6/PUX25jvqMoL4v6Gdw22rU9U3zBUccZnhltPm9LLXAKDPuZortIAQyqZC8X2c1l9o4ypt41fZGwnZ3IU4kdeNyyZo5iCx3s06ww+e3ALwsuq8OWqDvFDQ/L1DIy151zUCHRrxqDQ6dMony256Wnbdu7wNGgfnL6/2rs5O6ZiEOp0ysmK5jPNCtClXmplaIRmv+fVHGZ3bOif5vvwaLeQRjMVTnJOwzawGlhX0nvGk5h0zZCgiHaMcPYEabJseJFEkq1+i9eWtx6LKVHT2UHJq+QQ0B92nyZGS+04RrXmpspWYhDOWBxaLVNpxV96OYh2N5WHFynTX89DS76zX9ZnLIy7/A7bF4EmDp9/fAAAAAElFTkSuQmCC;" vertex="1" parent="1">
          <mxGeometry x="538.13" y="405" width="41" height="14.2" as="geometry" />
        </mxCell>
        <mxCell id="T1ir6dgXuIq2QgHA1IsL-40" value="" style="shape=flexArrow;endArrow=classic;startArrow=classic;html=1;rounded=0;entryX=0.976;entryY=0.659;entryDx=0;entryDy=0;entryPerimeter=0;exitX=0.026;exitY=0.659;exitDx=0;exitDy=0;exitPerimeter=0;width=21;startSize=10.29;endWidth=21;endSize=10.29;fillColor=default;" edge="1" parent="1">
          <mxGeometry width="100" height="100" relative="1" as="geometry">
            <mxPoint x="90.1400000000001" y="495.99800000000005" as="sourcePoint" />
            <mxPoint x="870.5920000000001" y="495.99800000000005" as="targetPoint" />
            <Array as="points">
              <mxPoint x="420" y="496.52" />
            </Array>
          </mxGeometry>
        </mxCell>
        <mxCell id="T1ir6dgXuIq2QgHA1IsL-75" value="plugin network" style="edgeLabel;html=1;align=center;verticalAlign=middle;resizable=0;points=[];" vertex="1" connectable="0" parent="T1ir6dgXuIq2QgHA1IsL-40">
          <mxGeometry x="-0.0066" y="3" relative="1" as="geometry">
            <mxPoint y="3" as="offset" />
          </mxGeometry>
        </mxCell>
        <mxCell id="T1ir6dgXuIq2QgHA1IsL-43" value="" style="rounded=1;whiteSpace=wrap;html=1;" vertex="1" parent="1">
          <mxGeometry x="150" y="385" width="136.75" height="100" as="geometry" />
        </mxCell>
        <mxCell id="T1ir6dgXuIq2QgHA1IsL-44" value="Pod 0" style="text;html=1;strokeColor=none;fillColor=none;align=center;verticalAlign=middle;whiteSpace=wrap;rounded=0;" vertex="1" parent="1">
          <mxGeometry x="167.5" y="385" width="40" height="20" as="geometry" />
        </mxCell>
        <mxCell id="T1ir6dgXuIq2QgHA1IsL-45" value="eth0" style="rounded=0;whiteSpace=wrap;html=1;fillColor=#FFFFFF;" vertex="1" parent="1">
          <mxGeometry x="186.75" y="465" width="77.5" height="20" as="geometry" />
        </mxCell>
        <mxCell id="T1ir6dgXuIq2QgHA1IsL-46" value="" style="shape=image;verticalLabelPosition=bottom;labelBackgroundColor=#ffffff;verticalAlign=top;aspect=fixed;imageAspect=0;image=data:image/png,iVBORw0KGgoAAAANSUhEUgAAAX0AAACECAMAAABLTQsGAAABNVBMVEX///8BAQEAAADZ8f3/4QDp6ekAru88PDxCQkJvb2++vr6urq6lpaX29vaioqIuLi40NDTf+P//5QDX19e4uLgAsfPGxsbh+v//6AB5eXkAqu6cnJyEhITU1NRkZGTOzs7v7+8cHByCgoJPT0/h4eGSoqrI3ulRUVEmJiYODg5ycnKMjIxbW1u6z9kAmtRFTVHS6fXUuwA8Q0anusMAibxdZ2wBKTgAeKQBUG4BOU7O7vxeUwF4hoz32gApJAEzODuFlJxpdHqJ1PcAXH4Als4BJTOfsbqNnaW2oQA7u/J5awHLswDiyAAAbJTBqgA1LwFFPQEhGxY/jbCy5v8BFB0ma4iE0/dfw/MxufGk3/mYhgAARV4bFwEALkRxttaGdwGlkgByZAFxlKZPRgE7NQGVw9lgVQGq5+vfAAAUHElEQVR4nO2dC1caSRaAoRBEEBGQhxKxUYK0+H5EYyQ+4pjEmGR24655zGySze78/5+wVd31ruru6hYDG7jnzJkTpIvqr25X3Xvr1u1Y7CFkugPSSw/S8lgCZRkgyQy6G6MpJQDi8ThoDrofoykNBD8OwKD7MZLiqv6Y/mBkyoEfB91Bd2QUxSKqnxt0T0ZR6mPVH6B0XNW3x6o/AFnCE8/yoDsykrKMZ/3SoDsykpJ26U8Ouh8jKUk88dQH3ZGRlOx44hmgLI/93AHKikt/fdD9GEnJxV36M4PuyEhKDi+649j+IKSFwwytQXdkJKUyXnQHKHNj+gOU7Jj+AAXTH2/pDkQwfXvQ/RhNGc88g5TMmP6AJGdZVgbb++ONrZ8ouaVuYyXftO0mpr846B6NjmTWAZW4S3/eMrludbZr8r2xeMu0zahTAWA1MNSzhq6zrZ/QxV9WKnmFPMYPZud8r3STrsD8T+roryjLevZ4ANIV7ysbOBqa/3md/cUkl/aB7+j/lIfxk5zEV46336OKZfvCd/lrrZ85slIAMP2ze/2LSC4dwN7Fq25zWVPUNgKNAXT8/0CSpaW5end5Hslyd2ZuabElzSJTQZqPAcvr6ow9hu8ji9n5dAeo0pxdr2doqkjWCL6CeLpJr1MHZtSlNLMieU5sCscy2a3k6A5uOPytLtcuGKdcCVLq5lXsMkpHVmfmTeGja9Zg47mWO7D0U9vHHh09ya4EkBfHwBg++nq33sgLF8EBTA76hodIMp1wREOJPJMBnSk0umKtKuyVRbefY9GwBn3HQyQVES6xcU53t7a21uF/u3m7b2MA21jva46tlTQQy/LfcghuJKCBmEkv5CadC7PSrAB2D872NtrbiULVlcR2u72xd3a+1bzvCCC973Pwf15jHKtiT67PZ71HPR3cQmel8WjOO00sb9QNQZAxgvx+yiYOmid7EHshoUoBjcLVyW7EEXAvq/d9sX0U4n5nH3kMwKppC/kpj9D5ZCjwjiB3Z5G5no5s68izIYADs3fiPAOh4ee7D5HW/yiM7QtAWvvorRg24hCq6yahydAKiejn8hT+0/1N2PZJ1Y8+fgo2TvIh+QP7gUzMEPTj7tSn6YhJzIq1ALoq/2j06yTc+Le/l8vlI9j0RiB9NACJjYNQ/B+saEk4+qgjGj8vBH2nibxSACcafRvDz7c/LKTKSPl3TeijAWifh+H/UEcqwtJH8LL3o68LjUeiX8F7TPZ2IvE6lSq/NZt7XKludMzxP1TtgPD0Nc9hWPqwCelEciT6XZz/tAfXWqj8qfITiP+xKf5EIh9C+f03enWSSy5mMpWW5fedqUj2l2Q6hqaPwif3p4/P124hQ6fwGs098TD4CxshlH8qHPpSd5U4eZPz3iG5KPTjYOW+9CEmQZsi0Xfzn8CZY2YeI+W/RLd7DpdVaF1CT6uAPC1XoP+FfC/BGaiemtMPk9qcq8+KxvGkMlffi770IEagD9vgjadI9PGae+USvUD499HNdq7ae49Ptk5tkYGd3zo4e7zXRna/c0nhJMTEbxmz72qck7TeZI1EPw7S96YfF/aNItHHhwwfY32+W4Bm56WBn9Y5OLtqb8On4ywEfdM6hTMeP6q9PiJ98UB3NPp8hyLRxwVdTshs8nrz8Og3t6wdL/I/3f81D042zkPQN9tPKXkHXXQNKPTVy7S9EXbWItEXlD8S/XVu1U1U24+3uE4/OXrx9nD/cnMf3dCTy83N/f3Dty+Ont4G35v+54z8rWlP9vCnNFEumb7HlUpnhKlHoW/ShDDzK/R9bgPLPC4lBQCayfcY+i9v9zfhEuDIJpr7X6TK+J/lciq1uf8WPSHh4MdVJ0eryn6yortA+hXlAbHmVtRuiocMZPpganqGl3l9YIXbJJLpB8MHa7FFvOyeJ17iBfb26eGmyxgLwvyW/ROJOwqXhy+ehKIfbPDnVnz7q5t7gunHYsSpFL5n+dFXsrysGf8HSKFvNM1ikxO4OST20X6KJw9Bo9DPPz5CgZ8uOMKNwWWYiSe4QzkpSm43phdbrVKmQT9JK9cY0dfgF5bdYPqxWFJdHLgHSKFvNM12SU4fFEfrHbCI8eu7FLY/D46JfPj0z7u7jyk6Br+FirMF2Tw50ca3py3ylxZdiZVwhRl9zeLM98aEfsxSV1aWKRmNfoumVB5duugh2Y93Fx8SiU8L7rzT2ZZd3ONPF3flhQX4XJjDV917RcRpR/TkyVOhsDWkX7k/fVJ0jv8eXcqi0YfKj+eew7KDPnX36di1P1HU7RDe8JV2v6Vw/OEfISP8AT1p8OwnpaGq4M+VlduQvnXvmSem2YRhy25E+jly2Arslx30BC8KuqXgsnrqEeOpvgy5vxKQtVnn4StJhrl70o8p4Pg5zJD+tNIIjXRGpB/L0Lnn8OKYo3ux4AZ99KqfKJyF3FwMMHmWePhqug+hrzQSUfcDLE49fWXqYRoVlX5sje4tnvGxzbsFN9yv1/zCeVj4/qd4c/7w6eAo27KG9JfkrwmugyH9lkKfbhlFpk9/G4Atbk/9oxvt1+61FNoeB7Z86PsXSF3j4OtunXhhmj8Y0ZcTT8URNqRvPQT9ZIdcCpp7BDYKN6fg7e7pNP+xH3sXk/Khr8VT4eDrcpuT+G/q9qQZfVlrxfBwdN2nexbR6ceSTYofnLerZNF1jH3F3ExUN7b84TcPtuJKP/1Vn4usaRdnknCjrh1G9BVTXfqVyPP+vVddJEnuQAk4QVsryNpH9mZTYb/Nkhk0Oh4HHZQUsX0l/gU0Lb/fz3Kqr/s7sYfy6t6wQl/j02VtZc0VU4si2zz3tThdsfI80ZN2oXDhLrpb4nwvJJIA8Oyz5pTFhrNNud0B/Mf+UYYmg69ziDPkj5o4nUJ/vi5KV5ciLD2JhvTVUOh9vS0iDe5kAwAHexdues85W4YLBTcCzb72tVj7Jibg3t7SlJTtU+6b/udUMgy+bvOXGqOaEKdJfF9dhORwUWRflz5CCv25nLdo2q5zbcMO33453PyCTB60iVioVtsbZ1vCjQDwqjYxUdt5zo/HPucct5v0cQp4FwKL7+gy3pgnoFu4I+xtgbwVhb56StMvytbJe8pkOq8+GS0hO8chDRX55dXV1cuTg1NbQg9+3ED4ExPF3jWbtF6Uy7/RtYImPATtpyeZkmqGiT0YWnctNH0A0jJ8M/qrfs9QyN0V3a3UxYdU2lEU/mK/qhUnXKnt/IEp/1l27SS8TVwlhmmA7rMYQ1zhwv1R30hI+vp2DOgvaQ6HcxNquJ1FvSK1ptRJUnsHX3u1CSLFHgnU/QvlRDyFQ0PsowMSxPA19ln2tWKWWqz8jEc6UCj6sJmGrisK/bpwnmIx29Vl7fG31Q/6sVipEcQfsb9h7KHuf8aMz6uvU4LyJ7ZJCE+3XhLhJh6ZzBzLaPGK0YWhDyZn9GkpEfd1ubvqD32o//Pe+FEv/vjWo5OOS5+ofttNRoTK3yFm0h75m48BxvzcjjQsXMzZM0Aain6nkdU+hREzSjiG/aIfmyHE1HkOgOs3xaLAfqL4Bn8fGaevsYdMAqMFMvdo/CQiLHVKsEtz/KmUR55Xh515wIpGEaLR5wus9I1+HsO3Ff7gfU1Ue0f1v+PvbyQSVPlpGnrbxn/1PiPKNJzztJJCOptPNkRYmwe2NqsESqNlEvIeZL/ok6Ty697Oqx+yJ1uT2UN57n7fBf7aDVDQMxhVvA0Amp7Kzw5N0a9UhMSSWb8TR1HsfUUVItFf41voF/01rKw3xSJZT1m3dxTVL+5gvC8LCaL80OE9oD4yWXi93N0cNXmwW7C0LKY2rHlc6EojktpKbUbJYRYXqT7RxzuN4FnNmdKlq64V5ccjRLS9QM5gtMnCexXw0lGLBnnSsVxlWj4+2PSPEJU0sWwDa0XCHyV/X1y++0Qfn2EE74rMkmdX2T1Z+WvP3O+fYmX/hPcFaGooSTL3qkNl2SovJgExipyyy6NvRoUnLCXhz67Yku3UJ/okt9Bl+7t8b19l5e+9xxYP2Zb5iFOw6NRDrE6PeENSz8uRqaAklHmFLKiXJFnMrql+qri9EpI+XIrkjvWJPi7V+MOhXLtWNEua+Ys3OOOZbr6T3Xi2Kbbra/N7018LfINIVtVr7Y1ZdRU/v00Wij78yYZiQvQhzoMET/vfarwtzzX6XJx78NLAHTQ9RnlBfwKwRR4GOvPrHV4270tzTvAB30XNrOJxY4vqDMXZneHO6zY1aqTGOGd9pOO1mHHTPjMn+WbfT/D4i98wfbYFQ5Ih2vSTU/wdrS7LyZuOrJscsUvq5nQvtcooX+Ryhkzpo5/Laz2XaFm0suC8F2hvumvqV3XB+p3XfvwF0GSpDx9S7sFfEuyhqT8eS6ict2x7hANkIWmfZvSVRDTQYdOHWX1Fp28eVO+5t4WlhNW0J0zrYi/e77ClF68MYJdLPPno+rtbdN3dxvQ7Wo+Lq6INmlP1RcuspzlimxrSzypTD3PiTKJsoNnoLnm6jP2hvyTSJ3EEqWufaayHxBkOOPoX2N+lU0/1HLeqVRxW48U7mqMR+sgY0lfTQZj/p56eyAoyN1cJeBz7Q78i0dcoP/rzH696NWcEitjcP+HyDY+x1UOnngTe5dLXgGQJDWHqc3oUT/Smn/SZ+A131X3kYXRfNToJ/+t3N71esfdDpQ/9XbjsxrloQ5Uc0tD9ZIk93MbdzHnBD0OfDfaw0C+Jqy7yd+VkGMIfgOfvf39vq/Th1FP+E20K00ysAj5Yqj9AwWqvmpzsQtLiihFFp88s4GGhT2yed9SuKb7y2m3h7l6kf7yw7+wJM4er7Wf1sBzOWbNOLrFV0V43nXkyyjgNH31i738WzJpAg4zP+0FWD1J9YUh2faINXPK4kfLzh0orSnqsvxM/5PRn+UgDlvfB9Lf4VOfqvyGXW+iYUPq4ooCHw8W83aYV2EGLP+MypeayedBXTB4+1jA09El4n/OotHaP9GN5nj40ccATMQV3A4eDtJ3iSgMEmj0VvkI3dCBM6WuOvLEo89DQx5mi4A2PfycIPxfShIIAXYrp5zi7QW9z8kcn/EPKOT7P3/GXzOhbGm+W+6mhoY9NA2d3hU39Qfj5cm7bp8A5X/0E4MozzmSEaxLo19VpQ/xS/QxkQRnQzy0ua50WBmho6JOCSczmdPHr7U52K8S1KrQR/C/lVPkFF+ckNqdXaUK+nKXX21py09JrARzPWaGfT0vihIN0XWZdGR765Py0uI9S7L33VX8CuorCyeBpyj1tarPVYA9P/PpStPzZFW0EN9aqy69kcH0HkxxmfY+5gPfw0G8BnfJPFCe++55YsVFUp9pG6f0QfhlXuWJRZmLxe9iUywKuyTlR/5NzSrXYJraeotXniYt7i8NDH1eNiYO/pC3c2isvNXJu5nG14LIHL9xyAyjKzJbdAk4T8jpBJJfSXZ2pWOjzXMlJopRllQxPZPo2N8BDRJ8k9HD+Lsbf++7NH+zi4j63+6TKxhM+0Fbdclv1MilzvpvrsrClOTJ9fpNkiOiTvgAgJzAUizvPPPljLqiSDxQU4/8C2F47OuDrfMszn7Zlzr7DhYsi0heNr2GiT3JkRIeX8P/uAPDg/2LTrfbwCcX4j/gdlsJjvx0WJMb4hcnrQeqyDZI+OVoMNMlTE8Va79t/MAbCHP/g031X7xc+Hhc+4c3dAzrxX2Gjx/L82ZxBGXwA0mJeYcSKkCKcoaLPKmd81iVuFms3765/PCc44uToyhfM/sItbAtNTnT8vV0QTU6/VIXgYvrKqzMjVAKOKxkdQ0WflnICOLNEnYBqtd7Nzc6bN2924P/IMr1fXoDsHdYf3HMUjjHknP+lkR7fRJEl//cQaLK/o1TBtmWnY7jok6o9XtqPhwALTiaMg9vU3Sc8zxyTsrZQOmftaoGcofOnH4tlvKefR7oAafgK8GBNWXqGjD4x+mFnv08oecvyMNwQ5WclNTD9+JEL7vRsz5A+XPTnNcan7VWKORR95/nR5KMr2SYDpk+bA+A/N57qj5+Bz/RJ2aM2Dk7q2bx8SgnGzehDWaqvszO8zfSUzwtrTOm7beWXtRsMq8NGn1VDQceifdSfD0GAJonoFzD9y3J5/4ixN6SPJFlaysxlKiX/AvBSiMJPJqdm5BelElFmu9BvY1MS8u75qg3+CPpf3upf2+HDb9TAZ/RT5XJqH1XuxLNTn9+/spQ1kLlMybJ8GpmbEaUe+v08WbkFo3Q8TylxjxJwDujq9L828RUA4ZvYu6X0afnUQxObZyyuiNVQEP8b5bQidLyA5PbSHRVM/793Kbd2J7L+nbnJGvSd/T9IV15GAHj26qZYY3Zmb+c6zi0OdOV18WOLc6NwfIEGgBTv1FSTHYsqml1oKL9fv0L+1c3Ou29/PQf80rDGXARkdxKL0wnwH3+4+OedW7c27Ps/RlS0gTRpXec+rrMKP86BxWPX16V1bKmzNX63q4EkffZRBPLOJ3nHdV+lLsJp+4O7tUhLqZIAM3iIt/39cpIRTR6/PUX25jvqMoL4v6Gdw22rU9U3zBUccZnhltPm9LLXAKDPuZortIAQyqZC8X2c1l9o4ypt41fZGwnZ3IU4kdeNyyZo5iCx3s06ww+e3ALwsuq8OWqDvFDQ/L1DIy151zUCHRrxqDQ6dMony256Wnbdu7wNGgfnL6/2rs5O6ZiEOp0ysmK5jPNCtClXmplaIRmv+fVHGZ3bOif5vvwaLeQRjMVTnJOwzawGlhX0nvGk5h0zZCgiHaMcPYEabJseJFEkq1+i9eWtx6LKVHT2UHJq+QQ0B92nyZGS+04RrXmpspWYhDOWBxaLVNpxV96OYh2N5WHFynTX89DS76zX9ZnLIy7/A7bF4EmDp9/fAAAAAElFTkSuQmCC;" vertex="1" parent="1">
          <mxGeometry x="167.5" y="465" width="41" height="14.2" as="geometry" />
        </mxCell>
        <mxCell id="T1ir6dgXuIq2QgHA1IsL-47" value="Socket" style="rounded=0;whiteSpace=wrap;html=1;fillColor=#60a917;strokeColor=#2D7600;fontColor=#ffffff;shadow=0;" vertex="1" parent="1">
          <mxGeometry x="185.5" y="415" width="80" height="20" as="geometry" />
        </mxCell>
        <mxCell id="T1ir6dgXuIq2QgHA1IsL-48" value="TCP/IP&lt;span style=&quot;color: rgba(0 , 0 , 0 , 0) ; font-family: monospace ; font-size: 0px&quot;&gt;%3CmxGraphModel%3E%3Croot%3E%3CmxCell%20id%3D%220%22%2F%3E%3CmxCell%20id%3D%221%22%20parent%3D%220%22%2F%3E%3CmxCell%20id%3D%222%22%20value%3D%22Socket%22%20style%3D%22rounded%3D0%3BwhiteSpace%3Dwrap%3Bhtml%3D1%3B%22%20vertex%3D%221%22%20parent%3D%221%22%3E%3CmxGeometry%20x%3D%22205%22%20y%3D%22180%22%20width%3D%2280%22%20height%3D%2220%22%20as%3D%22geometry%22%2F%3E%3C%2FmxCell%3E%3C%2Froot%3E%3C%2FmxGraphModel%3E&lt;/span&gt;" style="rounded=0;whiteSpace=wrap;html=1;fillColor=#fff2cc;strokeColor=#d6b656;shadow=0;" vertex="1" parent="1">
          <mxGeometry x="185.13" y="440" width="80" height="20" as="geometry" />
        </mxCell>
        <mxCell id="T1ir6dgXuIq2QgHA1IsL-73" style="edgeStyle=orthogonalEdgeStyle;rounded=0;orthogonalLoop=1;jettySize=auto;html=1;exitX=1;exitY=0;exitDx=0;exitDy=0;" edge="1" parent="1" source="T1ir6dgXuIq2QgHA1IsL-49" target="T1ir6dgXuIq2QgHA1IsL-69">
          <mxGeometry relative="1" as="geometry" />
        </mxCell>
        <mxCell id="T1ir6dgXuIq2QgHA1IsL-49" value="" style="shape=image;verticalLabelPosition=bottom;labelBackgroundColor=#ffffff;verticalAlign=top;aspect=fixed;imageAspect=0;image=data:image/png,iVBORw0KGgoAAAANSUhEUgAAAX0AAACECAMAAABLTQsGAAABNVBMVEX///8BAQEAAADZ8f3/4QDp6ekAru88PDxCQkJvb2++vr6urq6lpaX29vaioqIuLi40NDTf+P//5QDX19e4uLgAsfPGxsbh+v//6AB5eXkAqu6cnJyEhITU1NRkZGTOzs7v7+8cHByCgoJPT0/h4eGSoqrI3ulRUVEmJiYODg5ycnKMjIxbW1u6z9kAmtRFTVHS6fXUuwA8Q0anusMAibxdZ2wBKTgAeKQBUG4BOU7O7vxeUwF4hoz32gApJAEzODuFlJxpdHqJ1PcAXH4Als4BJTOfsbqNnaW2oQA7u/J5awHLswDiyAAAbJTBqgA1LwFFPQEhGxY/jbCy5v8BFB0ma4iE0/dfw/MxufGk3/mYhgAARV4bFwEALkRxttaGdwGlkgByZAFxlKZPRgE7NQGVw9lgVQGq5+vfAAAUHElEQVR4nO2dC1caSRaAoRBEEBGQhxKxUYK0+H5EYyQ+4pjEmGR24655zGySze78/5+wVd31ruru6hYDG7jnzJkTpIvqr25X3Xvr1u1Y7CFkugPSSw/S8lgCZRkgyQy6G6MpJQDi8ThoDrofoykNBD8OwKD7MZLiqv6Y/mBkyoEfB91Bd2QUxSKqnxt0T0ZR6mPVH6B0XNW3x6o/AFnCE8/yoDsykrKMZ/3SoDsykpJ26U8Ouh8jKUk88dQH3ZGRlOx44hmgLI/93AHKikt/fdD9GEnJxV36M4PuyEhKDi+649j+IKSFwwytQXdkJKUyXnQHKHNj+gOU7Jj+AAXTH2/pDkQwfXvQ/RhNGc88g5TMmP6AJGdZVgbb++ONrZ8ouaVuYyXftO0mpr846B6NjmTWAZW4S3/eMrludbZr8r2xeMu0zahTAWA1MNSzhq6zrZ/QxV9WKnmFPMYPZud8r3STrsD8T+roryjLevZ4ANIV7ysbOBqa/3md/cUkl/aB7+j/lIfxk5zEV46336OKZfvCd/lrrZ85slIAMP2ze/2LSC4dwN7Fq25zWVPUNgKNAXT8/0CSpaW5end5Hslyd2ZuabElzSJTQZqPAcvr6ow9hu8ji9n5dAeo0pxdr2doqkjWCL6CeLpJr1MHZtSlNLMieU5sCscy2a3k6A5uOPytLtcuGKdcCVLq5lXsMkpHVmfmTeGja9Zg47mWO7D0U9vHHh09ya4EkBfHwBg++nq33sgLF8EBTA76hodIMp1wREOJPJMBnSk0umKtKuyVRbefY9GwBn3HQyQVES6xcU53t7a21uF/u3m7b2MA21jva46tlTQQy/LfcghuJKCBmEkv5CadC7PSrAB2D872NtrbiULVlcR2u72xd3a+1bzvCCC973Pwf15jHKtiT67PZ71HPR3cQmel8WjOO00sb9QNQZAxgvx+yiYOmid7EHshoUoBjcLVyW7EEXAvq/d9sX0U4n5nH3kMwKppC/kpj9D5ZCjwjiB3Z5G5no5s68izIYADs3fiPAOh4ee7D5HW/yiM7QtAWvvorRg24hCq6yahydAKiejn8hT+0/1N2PZJ1Y8+fgo2TvIh+QP7gUzMEPTj7tSn6YhJzIq1ALoq/2j06yTc+Le/l8vlI9j0RiB9NACJjYNQ/B+saEk4+qgjGj8vBH2nibxSACcafRvDz7c/LKTKSPl3TeijAWifh+H/UEcqwtJH8LL3o68LjUeiX8F7TPZ2IvE6lSq/NZt7XKludMzxP1TtgPD0Nc9hWPqwCelEciT6XZz/tAfXWqj8qfITiP+xKf5EIh9C+f03enWSSy5mMpWW5fedqUj2l2Q6hqaPwif3p4/P124hQ6fwGs098TD4CxshlH8qHPpSd5U4eZPz3iG5KPTjYOW+9CEmQZsi0Xfzn8CZY2YeI+W/RLd7DpdVaF1CT6uAPC1XoP+FfC/BGaiemtMPk9qcq8+KxvGkMlffi770IEagD9vgjadI9PGae+USvUD499HNdq7ae49Ptk5tkYGd3zo4e7zXRna/c0nhJMTEbxmz72qck7TeZI1EPw7S96YfF/aNItHHhwwfY32+W4Bm56WBn9Y5OLtqb8On4ywEfdM6hTMeP6q9PiJ98UB3NPp8hyLRxwVdTshs8nrz8Og3t6wdL/I/3f81D042zkPQN9tPKXkHXXQNKPTVy7S9EXbWItEXlD8S/XVu1U1U24+3uE4/OXrx9nD/cnMf3dCTy83N/f3Dty+Ont4G35v+54z8rWlP9vCnNFEumb7HlUpnhKlHoW/ShDDzK/R9bgPLPC4lBQCayfcY+i9v9zfhEuDIJpr7X6TK+J/lciq1uf8WPSHh4MdVJ0eryn6yortA+hXlAbHmVtRuiocMZPpganqGl3l9YIXbJJLpB8MHa7FFvOyeJ17iBfb26eGmyxgLwvyW/ROJOwqXhy+ehKIfbPDnVnz7q5t7gunHYsSpFL5n+dFXsrysGf8HSKFvNM1ikxO4OST20X6KJw9Bo9DPPz5CgZ8uOMKNwWWYiSe4QzkpSm43phdbrVKmQT9JK9cY0dfgF5bdYPqxWFJdHLgHSKFvNM12SU4fFEfrHbCI8eu7FLY/D46JfPj0z7u7jyk6Br+FirMF2Tw50ca3py3ylxZdiZVwhRl9zeLM98aEfsxSV1aWKRmNfoumVB5duugh2Y93Fx8SiU8L7rzT2ZZd3ONPF3flhQX4XJjDV917RcRpR/TkyVOhsDWkX7k/fVJ0jv8eXcqi0YfKj+eew7KDPnX36di1P1HU7RDe8JV2v6Vw/OEfISP8AT1p8OwnpaGq4M+VlduQvnXvmSem2YRhy25E+jly2Arslx30BC8KuqXgsnrqEeOpvgy5vxKQtVnn4StJhrl70o8p4Pg5zJD+tNIIjXRGpB/L0Lnn8OKYo3ux4AZ99KqfKJyF3FwMMHmWePhqug+hrzQSUfcDLE49fWXqYRoVlX5sje4tnvGxzbsFN9yv1/zCeVj4/qd4c/7w6eAo27KG9JfkrwmugyH9lkKfbhlFpk9/G4Atbk/9oxvt1+61FNoeB7Z86PsXSF3j4OtunXhhmj8Y0ZcTT8URNqRvPQT9ZIdcCpp7BDYKN6fg7e7pNP+xH3sXk/Khr8VT4eDrcpuT+G/q9qQZfVlrxfBwdN2nexbR6ceSTYofnLerZNF1jH3F3ExUN7b84TcPtuJKP/1Vn4usaRdnknCjrh1G9BVTXfqVyPP+vVddJEnuQAk4QVsryNpH9mZTYb/Nkhk0Oh4HHZQUsX0l/gU0Lb/fz3Kqr/s7sYfy6t6wQl/j02VtZc0VU4si2zz3tThdsfI80ZN2oXDhLrpb4nwvJJIA8Oyz5pTFhrNNud0B/Mf+UYYmg69ziDPkj5o4nUJ/vi5KV5ciLD2JhvTVUOh9vS0iDe5kAwAHexdues85W4YLBTcCzb72tVj7Jibg3t7SlJTtU+6b/udUMgy+bvOXGqOaEKdJfF9dhORwUWRflz5CCv25nLdo2q5zbcMO33453PyCTB60iVioVtsbZ1vCjQDwqjYxUdt5zo/HPucct5v0cQp4FwKL7+gy3pgnoFu4I+xtgbwVhb56StMvytbJe8pkOq8+GS0hO8chDRX55dXV1cuTg1NbQg9+3ED4ExPF3jWbtF6Uy7/RtYImPATtpyeZkmqGiT0YWnctNH0A0jJ8M/qrfs9QyN0V3a3UxYdU2lEU/mK/qhUnXKnt/IEp/1l27SS8TVwlhmmA7rMYQ1zhwv1R30hI+vp2DOgvaQ6HcxNquJ1FvSK1ptRJUnsHX3u1CSLFHgnU/QvlRDyFQ0PsowMSxPA19ln2tWKWWqz8jEc6UCj6sJmGrisK/bpwnmIx29Vl7fG31Q/6sVipEcQfsb9h7KHuf8aMz6uvU4LyJ7ZJCE+3XhLhJh6ZzBzLaPGK0YWhDyZn9GkpEfd1ubvqD32o//Pe+FEv/vjWo5OOS5+ofttNRoTK3yFm0h75m48BxvzcjjQsXMzZM0Aain6nkdU+hREzSjiG/aIfmyHE1HkOgOs3xaLAfqL4Bn8fGaevsYdMAqMFMvdo/CQiLHVKsEtz/KmUR55Xh515wIpGEaLR5wus9I1+HsO3Ff7gfU1Ue0f1v+PvbyQSVPlpGnrbxn/1PiPKNJzztJJCOptPNkRYmwe2NqsESqNlEvIeZL/ok6Ty697Oqx+yJ1uT2UN57n7fBf7aDVDQMxhVvA0Amp7Kzw5N0a9UhMSSWb8TR1HsfUUVItFf41voF/01rKw3xSJZT1m3dxTVL+5gvC8LCaL80OE9oD4yWXi93N0cNXmwW7C0LKY2rHlc6EojktpKbUbJYRYXqT7RxzuN4FnNmdKlq64V5ccjRLS9QM5gtMnCexXw0lGLBnnSsVxlWj4+2PSPEJU0sWwDa0XCHyV/X1y++0Qfn2EE74rMkmdX2T1Z+WvP3O+fYmX/hPcFaGooSTL3qkNl2SovJgExipyyy6NvRoUnLCXhz67Yku3UJ/okt9Bl+7t8b19l5e+9xxYP2Zb5iFOw6NRDrE6PeENSz8uRqaAklHmFLKiXJFnMrql+qri9EpI+XIrkjvWJPi7V+MOhXLtWNEua+Ys3OOOZbr6T3Xi2Kbbra/N7018LfINIVtVr7Y1ZdRU/v00Wij78yYZiQvQhzoMET/vfarwtzzX6XJx78NLAHTQ9RnlBfwKwRR4GOvPrHV4270tzTvAB30XNrOJxY4vqDMXZneHO6zY1aqTGOGd9pOO1mHHTPjMn+WbfT/D4i98wfbYFQ5Ih2vSTU/wdrS7LyZuOrJscsUvq5nQvtcooX+Ryhkzpo5/Laz2XaFm0suC8F2hvumvqV3XB+p3XfvwF0GSpDx9S7sFfEuyhqT8eS6ict2x7hANkIWmfZvSVRDTQYdOHWX1Fp28eVO+5t4WlhNW0J0zrYi/e77ClF68MYJdLPPno+rtbdN3dxvQ7Wo+Lq6INmlP1RcuspzlimxrSzypTD3PiTKJsoNnoLnm6jP2hvyTSJ3EEqWufaayHxBkOOPoX2N+lU0/1HLeqVRxW48U7mqMR+sgY0lfTQZj/p56eyAoyN1cJeBz7Q78i0dcoP/rzH696NWcEitjcP+HyDY+x1UOnngTe5dLXgGQJDWHqc3oUT/Smn/SZ+A131X3kYXRfNToJ/+t3N71esfdDpQ/9XbjsxrloQ5Uc0tD9ZIk93MbdzHnBD0OfDfaw0C+Jqy7yd+VkGMIfgOfvf39vq/Th1FP+E20K00ysAj5Yqj9AwWqvmpzsQtLiihFFp88s4GGhT2yed9SuKb7y2m3h7l6kf7yw7+wJM4er7Wf1sBzOWbNOLrFV0V43nXkyyjgNH31i738WzJpAg4zP+0FWD1J9YUh2faINXPK4kfLzh0orSnqsvxM/5PRn+UgDlvfB9Lf4VOfqvyGXW+iYUPq4ooCHw8W83aYV2EGLP+MypeayedBXTB4+1jA09El4n/OotHaP9GN5nj40ccATMQV3A4eDtJ3iSgMEmj0VvkI3dCBM6WuOvLEo89DQx5mi4A2PfycIPxfShIIAXYrp5zi7QW9z8kcn/EPKOT7P3/GXzOhbGm+W+6mhoY9NA2d3hU39Qfj5cm7bp8A5X/0E4MozzmSEaxLo19VpQ/xS/QxkQRnQzy0ua50WBmho6JOCSczmdPHr7U52K8S1KrQR/C/lVPkFF+ckNqdXaUK+nKXX21py09JrARzPWaGfT0vihIN0XWZdGR765Py0uI9S7L33VX8CuorCyeBpyj1tarPVYA9P/PpStPzZFW0EN9aqy69kcH0HkxxmfY+5gPfw0G8BnfJPFCe++55YsVFUp9pG6f0QfhlXuWJRZmLxe9iUywKuyTlR/5NzSrXYJraeotXniYt7i8NDH1eNiYO/pC3c2isvNXJu5nG14LIHL9xyAyjKzJbdAk4T8jpBJJfSXZ2pWOjzXMlJopRllQxPZPo2N8BDRJ8k9HD+Lsbf++7NH+zi4j63+6TKxhM+0Fbdclv1MilzvpvrsrClOTJ9fpNkiOiTvgAgJzAUizvPPPljLqiSDxQU4/8C2F47OuDrfMszn7Zlzr7DhYsi0heNr2GiT3JkRIeX8P/uAPDg/2LTrfbwCcX4j/gdlsJjvx0WJMb4hcnrQeqyDZI+OVoMNMlTE8Va79t/MAbCHP/g031X7xc+Hhc+4c3dAzrxX2Gjx/L82ZxBGXwA0mJeYcSKkCKcoaLPKmd81iVuFms3765/PCc44uToyhfM/sItbAtNTnT8vV0QTU6/VIXgYvrKqzMjVAKOKxkdQ0WflnICOLNEnYBqtd7Nzc6bN2924P/IMr1fXoDsHdYf3HMUjjHknP+lkR7fRJEl//cQaLK/o1TBtmWnY7jok6o9XtqPhwALTiaMg9vU3Sc8zxyTsrZQOmftaoGcofOnH4tlvKefR7oAafgK8GBNWXqGjD4x+mFnv08oecvyMNwQ5WclNTD9+JEL7vRsz5A+XPTnNcan7VWKORR95/nR5KMr2SYDpk+bA+A/N57qj5+Bz/RJ2aM2Dk7q2bx8SgnGzehDWaqvszO8zfSUzwtrTOm7beWXtRsMq8NGn1VDQceifdSfD0GAJonoFzD9y3J5/4ixN6SPJFlaysxlKiX/AvBSiMJPJqdm5BelElFmu9BvY1MS8u75qg3+CPpf3upf2+HDb9TAZ/RT5XJqH1XuxLNTn9+/spQ1kLlMybJ8GpmbEaUe+v08WbkFo3Q8TylxjxJwDujq9L828RUA4ZvYu6X0afnUQxObZyyuiNVQEP8b5bQidLyA5PbSHRVM/793Kbd2J7L+nbnJGvSd/T9IV15GAHj26qZYY3Zmb+c6zi0OdOV18WOLc6NwfIEGgBTv1FSTHYsqml1oKL9fv0L+1c3Ou29/PQf80rDGXARkdxKL0wnwH3+4+OedW7c27Ps/RlS0gTRpXec+rrMKP86BxWPX16V1bKmzNX63q4EkffZRBPLOJ3nHdV+lLsJp+4O7tUhLqZIAM3iIt/39cpIRTR6/PUX25jvqMoL4v6Gdw22rU9U3zBUccZnhltPm9LLXAKDPuZortIAQyqZC8X2c1l9o4ypt41fZGwnZ3IU4kdeNyyZo5iCx3s06ww+e3ALwsuq8OWqDvFDQ/L1DIy151zUCHRrxqDQ6dMony256Wnbdu7wNGgfnL6/2rs5O6ZiEOp0ysmK5jPNCtClXmplaIRmv+fVHGZ3bOif5vvwaLeQRjMVTnJOwzawGlhX0nvGk5h0zZCgiHaMcPYEabJseJFEkq1+i9eWtx6LKVHT2UHJq+QQ0B92nyZGS+04RrXmpspWYhDOWBxaLVNpxV96OYh2N5WHFynTX89DS76zX9ZnLIy7/A7bF4EmDp9/fAAAAAElFTkSuQmCC;" vertex="1" parent="1">
          <mxGeometry x="167.5" y="405" width="41" height="14.2" as="geometry" />
        </mxCell>
        <mxCell id="T1ir6dgXuIq2QgHA1IsL-50" value="" style="rounded=1;whiteSpace=wrap;html=1;" vertex="1" parent="1">
          <mxGeometry x="670" y="385" width="136.75" height="100" as="geometry" />
        </mxCell>
        <mxCell id="T1ir6dgXuIq2QgHA1IsL-51" value="Pod 4" style="text;html=1;strokeColor=none;fillColor=none;align=center;verticalAlign=middle;whiteSpace=wrap;rounded=0;" vertex="1" parent="1">
          <mxGeometry x="687.5" y="385" width="40" height="20" as="geometry" />
        </mxCell>
        <mxCell id="T1ir6dgXuIq2QgHA1IsL-52" value="eth0" style="rounded=0;whiteSpace=wrap;html=1;fillColor=#FFFFFF;" vertex="1" parent="1">
          <mxGeometry x="706.75" y="465" width="77.5" height="20" as="geometry" />
        </mxCell>
        <mxCell id="T1ir6dgXuIq2QgHA1IsL-53" value="" style="shape=image;verticalLabelPosition=bottom;labelBackgroundColor=#ffffff;verticalAlign=top;aspect=fixed;imageAspect=0;image=data:image/png,iVBORw0KGgoAAAANSUhEUgAAAX0AAACECAMAAABLTQsGAAABNVBMVEX///8BAQEAAADZ8f3/4QDp6ekAru88PDxCQkJvb2++vr6urq6lpaX29vaioqIuLi40NDTf+P//5QDX19e4uLgAsfPGxsbh+v//6AB5eXkAqu6cnJyEhITU1NRkZGTOzs7v7+8cHByCgoJPT0/h4eGSoqrI3ulRUVEmJiYODg5ycnKMjIxbW1u6z9kAmtRFTVHS6fXUuwA8Q0anusMAibxdZ2wBKTgAeKQBUG4BOU7O7vxeUwF4hoz32gApJAEzODuFlJxpdHqJ1PcAXH4Als4BJTOfsbqNnaW2oQA7u/J5awHLswDiyAAAbJTBqgA1LwFFPQEhGxY/jbCy5v8BFB0ma4iE0/dfw/MxufGk3/mYhgAARV4bFwEALkRxttaGdwGlkgByZAFxlKZPRgE7NQGVw9lgVQGq5+vfAAAUHElEQVR4nO2dC1caSRaAoRBEEBGQhxKxUYK0+H5EYyQ+4pjEmGR24655zGySze78/5+wVd31ruru6hYDG7jnzJkTpIvqr25X3Xvr1u1Y7CFkugPSSw/S8lgCZRkgyQy6G6MpJQDi8ThoDrofoykNBD8OwKD7MZLiqv6Y/mBkyoEfB91Bd2QUxSKqnxt0T0ZR6mPVH6B0XNW3x6o/AFnCE8/yoDsykrKMZ/3SoDsykpJ26U8Ouh8jKUk88dQH3ZGRlOx44hmgLI/93AHKikt/fdD9GEnJxV36M4PuyEhKDi+649j+IKSFwwytQXdkJKUyXnQHKHNj+gOU7Jj+AAXTH2/pDkQwfXvQ/RhNGc88g5TMmP6AJGdZVgbb++ONrZ8ouaVuYyXftO0mpr846B6NjmTWAZW4S3/eMrludbZr8r2xeMu0zahTAWA1MNSzhq6zrZ/QxV9WKnmFPMYPZud8r3STrsD8T+roryjLevZ4ANIV7ysbOBqa/3md/cUkl/aB7+j/lIfxk5zEV46336OKZfvCd/lrrZ85slIAMP2ze/2LSC4dwN7Fq25zWVPUNgKNAXT8/0CSpaW5end5Hslyd2ZuabElzSJTQZqPAcvr6ow9hu8ji9n5dAeo0pxdr2doqkjWCL6CeLpJr1MHZtSlNLMieU5sCscy2a3k6A5uOPytLtcuGKdcCVLq5lXsMkpHVmfmTeGja9Zg47mWO7D0U9vHHh09ya4EkBfHwBg++nq33sgLF8EBTA76hodIMp1wREOJPJMBnSk0umKtKuyVRbefY9GwBn3HQyQVES6xcU53t7a21uF/u3m7b2MA21jva46tlTQQy/LfcghuJKCBmEkv5CadC7PSrAB2D872NtrbiULVlcR2u72xd3a+1bzvCCC973Pwf15jHKtiT67PZ71HPR3cQmel8WjOO00sb9QNQZAxgvx+yiYOmid7EHshoUoBjcLVyW7EEXAvq/d9sX0U4n5nH3kMwKppC/kpj9D5ZCjwjiB3Z5G5no5s68izIYADs3fiPAOh4ee7D5HW/yiM7QtAWvvorRg24hCq6yahydAKiejn8hT+0/1N2PZJ1Y8+fgo2TvIh+QP7gUzMEPTj7tSn6YhJzIq1ALoq/2j06yTc+Le/l8vlI9j0RiB9NACJjYNQ/B+saEk4+qgjGj8vBH2nibxSACcafRvDz7c/LKTKSPl3TeijAWifh+H/UEcqwtJH8LL3o68LjUeiX8F7TPZ2IvE6lSq/NZt7XKludMzxP1TtgPD0Nc9hWPqwCelEciT6XZz/tAfXWqj8qfITiP+xKf5EIh9C+f03enWSSy5mMpWW5fedqUj2l2Q6hqaPwif3p4/P124hQ6fwGs098TD4CxshlH8qHPpSd5U4eZPz3iG5KPTjYOW+9CEmQZsi0Xfzn8CZY2YeI+W/RLd7DpdVaF1CT6uAPC1XoP+FfC/BGaiemtMPk9qcq8+KxvGkMlffi770IEagD9vgjadI9PGae+USvUD499HNdq7ae49Ptk5tkYGd3zo4e7zXRna/c0nhJMTEbxmz72qck7TeZI1EPw7S96YfF/aNItHHhwwfY32+W4Bm56WBn9Y5OLtqb8On4ywEfdM6hTMeP6q9PiJ98UB3NPp8hyLRxwVdTshs8nrz8Og3t6wdL/I/3f81D042zkPQN9tPKXkHXXQNKPTVy7S9EXbWItEXlD8S/XVu1U1U24+3uE4/OXrx9nD/cnMf3dCTy83N/f3Dty+Ont4G35v+54z8rWlP9vCnNFEumb7HlUpnhKlHoW/ShDDzK/R9bgPLPC4lBQCayfcY+i9v9zfhEuDIJpr7X6TK+J/lciq1uf8WPSHh4MdVJ0eryn6yortA+hXlAbHmVtRuiocMZPpganqGl3l9YIXbJJLpB8MHa7FFvOyeJ17iBfb26eGmyxgLwvyW/ROJOwqXhy+ehKIfbPDnVnz7q5t7gunHYsSpFL5n+dFXsrysGf8HSKFvNM1ikxO4OST20X6KJw9Bo9DPPz5CgZ8uOMKNwWWYiSe4QzkpSm43phdbrVKmQT9JK9cY0dfgF5bdYPqxWFJdHLgHSKFvNM12SU4fFEfrHbCI8eu7FLY/D46JfPj0z7u7jyk6Br+FirMF2Tw50ca3py3ylxZdiZVwhRl9zeLM98aEfsxSV1aWKRmNfoumVB5duugh2Y93Fx8SiU8L7rzT2ZZd3ONPF3flhQX4XJjDV917RcRpR/TkyVOhsDWkX7k/fVJ0jv8eXcqi0YfKj+eew7KDPnX36di1P1HU7RDe8JV2v6Vw/OEfISP8AT1p8OwnpaGq4M+VlduQvnXvmSem2YRhy25E+jly2Arslx30BC8KuqXgsnrqEeOpvgy5vxKQtVnn4StJhrl70o8p4Pg5zJD+tNIIjXRGpB/L0Lnn8OKYo3ux4AZ99KqfKJyF3FwMMHmWePhqug+hrzQSUfcDLE49fWXqYRoVlX5sje4tnvGxzbsFN9yv1/zCeVj4/qd4c/7w6eAo27KG9JfkrwmugyH9lkKfbhlFpk9/G4Atbk/9oxvt1+61FNoeB7Z86PsXSF3j4OtunXhhmj8Y0ZcTT8URNqRvPQT9ZIdcCpp7BDYKN6fg7e7pNP+xH3sXk/Khr8VT4eDrcpuT+G/q9qQZfVlrxfBwdN2nexbR6ceSTYofnLerZNF1jH3F3ExUN7b84TcPtuJKP/1Vn4usaRdnknCjrh1G9BVTXfqVyPP+vVddJEnuQAk4QVsryNpH9mZTYb/Nkhk0Oh4HHZQUsX0l/gU0Lb/fz3Kqr/s7sYfy6t6wQl/j02VtZc0VU4si2zz3tThdsfI80ZN2oXDhLrpb4nwvJJIA8Oyz5pTFhrNNud0B/Mf+UYYmg69ziDPkj5o4nUJ/vi5KV5ciLD2JhvTVUOh9vS0iDe5kAwAHexdues85W4YLBTcCzb72tVj7Jibg3t7SlJTtU+6b/udUMgy+bvOXGqOaEKdJfF9dhORwUWRflz5CCv25nLdo2q5zbcMO33453PyCTB60iVioVtsbZ1vCjQDwqjYxUdt5zo/HPucct5v0cQp4FwKL7+gy3pgnoFu4I+xtgbwVhb56StMvytbJe8pkOq8+GS0hO8chDRX55dXV1cuTg1NbQg9+3ED4ExPF3jWbtF6Uy7/RtYImPATtpyeZkmqGiT0YWnctNH0A0jJ8M/qrfs9QyN0V3a3UxYdU2lEU/mK/qhUnXKnt/IEp/1l27SS8TVwlhmmA7rMYQ1zhwv1R30hI+vp2DOgvaQ6HcxNquJ1FvSK1ptRJUnsHX3u1CSLFHgnU/QvlRDyFQ0PsowMSxPA19ln2tWKWWqz8jEc6UCj6sJmGrisK/bpwnmIx29Vl7fG31Q/6sVipEcQfsb9h7KHuf8aMz6uvU4LyJ7ZJCE+3XhLhJh6ZzBzLaPGK0YWhDyZn9GkpEfd1ubvqD32o//Pe+FEv/vjWo5OOS5+ofttNRoTK3yFm0h75m48BxvzcjjQsXMzZM0Aain6nkdU+hREzSjiG/aIfmyHE1HkOgOs3xaLAfqL4Bn8fGaevsYdMAqMFMvdo/CQiLHVKsEtz/KmUR55Xh515wIpGEaLR5wus9I1+HsO3Ff7gfU1Ue0f1v+PvbyQSVPlpGnrbxn/1PiPKNJzztJJCOptPNkRYmwe2NqsESqNlEvIeZL/ok6Ty697Oqx+yJ1uT2UN57n7fBf7aDVDQMxhVvA0Amp7Kzw5N0a9UhMSSWb8TR1HsfUUVItFf41voF/01rKw3xSJZT1m3dxTVL+5gvC8LCaL80OE9oD4yWXi93N0cNXmwW7C0LKY2rHlc6EojktpKbUbJYRYXqT7RxzuN4FnNmdKlq64V5ccjRLS9QM5gtMnCexXw0lGLBnnSsVxlWj4+2PSPEJU0sWwDa0XCHyV/X1y++0Qfn2EE74rMkmdX2T1Z+WvP3O+fYmX/hPcFaGooSTL3qkNl2SovJgExipyyy6NvRoUnLCXhz67Yku3UJ/okt9Bl+7t8b19l5e+9xxYP2Zb5iFOw6NRDrE6PeENSz8uRqaAklHmFLKiXJFnMrql+qri9EpI+XIrkjvWJPi7V+MOhXLtWNEua+Ys3OOOZbr6T3Xi2Kbbra/N7018LfINIVtVr7Y1ZdRU/v00Wij78yYZiQvQhzoMET/vfarwtzzX6XJx78NLAHTQ9RnlBfwKwRR4GOvPrHV4270tzTvAB30XNrOJxY4vqDMXZneHO6zY1aqTGOGd9pOO1mHHTPjMn+WbfT/D4i98wfbYFQ5Ih2vSTU/wdrS7LyZuOrJscsUvq5nQvtcooX+Ryhkzpo5/Laz2XaFm0suC8F2hvumvqV3XB+p3XfvwF0GSpDx9S7sFfEuyhqT8eS6ict2x7hANkIWmfZvSVRDTQYdOHWX1Fp28eVO+5t4WlhNW0J0zrYi/e77ClF68MYJdLPPno+rtbdN3dxvQ7Wo+Lq6INmlP1RcuspzlimxrSzypTD3PiTKJsoNnoLnm6jP2hvyTSJ3EEqWufaayHxBkOOPoX2N+lU0/1HLeqVRxW48U7mqMR+sgY0lfTQZj/p56eyAoyN1cJeBz7Q78i0dcoP/rzH696NWcEitjcP+HyDY+x1UOnngTe5dLXgGQJDWHqc3oUT/Smn/SZ+A131X3kYXRfNToJ/+t3N71esfdDpQ/9XbjsxrloQ5Uc0tD9ZIk93MbdzHnBD0OfDfaw0C+Jqy7yd+VkGMIfgOfvf39vq/Th1FP+E20K00ysAj5Yqj9AwWqvmpzsQtLiihFFp88s4GGhT2yed9SuKb7y2m3h7l6kf7yw7+wJM4er7Wf1sBzOWbNOLrFV0V43nXkyyjgNH31i738WzJpAg4zP+0FWD1J9YUh2faINXPK4kfLzh0orSnqsvxM/5PRn+UgDlvfB9Lf4VOfqvyGXW+iYUPq4ooCHw8W83aYV2EGLP+MypeayedBXTB4+1jA09El4n/OotHaP9GN5nj40ccATMQV3A4eDtJ3iSgMEmj0VvkI3dCBM6WuOvLEo89DQx5mi4A2PfycIPxfShIIAXYrp5zi7QW9z8kcn/EPKOT7P3/GXzOhbGm+W+6mhoY9NA2d3hU39Qfj5cm7bp8A5X/0E4MozzmSEaxLo19VpQ/xS/QxkQRnQzy0ua50WBmho6JOCSczmdPHr7U52K8S1KrQR/C/lVPkFF+ckNqdXaUK+nKXX21py09JrARzPWaGfT0vihIN0XWZdGR765Py0uI9S7L33VX8CuorCyeBpyj1tarPVYA9P/PpStPzZFW0EN9aqy69kcH0HkxxmfY+5gPfw0G8BnfJPFCe++55YsVFUp9pG6f0QfhlXuWJRZmLxe9iUywKuyTlR/5NzSrXYJraeotXniYt7i8NDH1eNiYO/pC3c2isvNXJu5nG14LIHL9xyAyjKzJbdAk4T8jpBJJfSXZ2pWOjzXMlJopRllQxPZPo2N8BDRJ8k9HD+Lsbf++7NH+zi4j63+6TKxhM+0Fbdclv1MilzvpvrsrClOTJ9fpNkiOiTvgAgJzAUizvPPPljLqiSDxQU4/8C2F47OuDrfMszn7Zlzr7DhYsi0heNr2GiT3JkRIeX8P/uAPDg/2LTrfbwCcX4j/gdlsJjvx0WJMb4hcnrQeqyDZI+OVoMNMlTE8Va79t/MAbCHP/g031X7xc+Hhc+4c3dAzrxX2Gjx/L82ZxBGXwA0mJeYcSKkCKcoaLPKmd81iVuFms3765/PCc44uToyhfM/sItbAtNTnT8vV0QTU6/VIXgYvrKqzMjVAKOKxkdQ0WflnICOLNEnYBqtd7Nzc6bN2924P/IMr1fXoDsHdYf3HMUjjHknP+lkR7fRJEl//cQaLK/o1TBtmWnY7jok6o9XtqPhwALTiaMg9vU3Sc8zxyTsrZQOmftaoGcofOnH4tlvKefR7oAafgK8GBNWXqGjD4x+mFnv08oecvyMNwQ5WclNTD9+JEL7vRsz5A+XPTnNcan7VWKORR95/nR5KMr2SYDpk+bA+A/N57qj5+Bz/RJ2aM2Dk7q2bx8SgnGzehDWaqvszO8zfSUzwtrTOm7beWXtRsMq8NGn1VDQceifdSfD0GAJonoFzD9y3J5/4ixN6SPJFlaysxlKiX/AvBSiMJPJqdm5BelElFmu9BvY1MS8u75qg3+CPpf3upf2+HDb9TAZ/RT5XJqH1XuxLNTn9+/spQ1kLlMybJ8GpmbEaUe+v08WbkFo3Q8TylxjxJwDujq9L828RUA4ZvYu6X0afnUQxObZyyuiNVQEP8b5bQidLyA5PbSHRVM/793Kbd2J7L+nbnJGvSd/T9IV15GAHj26qZYY3Zmb+c6zi0OdOV18WOLc6NwfIEGgBTv1FSTHYsqml1oKL9fv0L+1c3Ou29/PQf80rDGXARkdxKL0wnwH3+4+OedW7c27Ps/RlS0gTRpXec+rrMKP86BxWPX16V1bKmzNX63q4EkffZRBPLOJ3nHdV+lLsJp+4O7tUhLqZIAM3iIt/39cpIRTR6/PUX25jvqMoL4v6Gdw22rU9U3zBUccZnhltPm9LLXAKDPuZortIAQyqZC8X2c1l9o4ypt41fZGwnZ3IU4kdeNyyZo5iCx3s06ww+e3ALwsuq8OWqDvFDQ/L1DIy151zUCHRrxqDQ6dMony256Wnbdu7wNGgfnL6/2rs5O6ZiEOp0ysmK5jPNCtClXmplaIRmv+fVHGZ3bOif5vvwaLeQRjMVTnJOwzawGlhX0nvGk5h0zZCgiHaMcPYEabJseJFEkq1+i9eWtx6LKVHT2UHJq+QQ0B92nyZGS+04RrXmpspWYhDOWBxaLVNpxV96OYh2N5WHFynTX89DS76zX9ZnLIy7/A7bF4EmDp9/fAAAAAElFTkSuQmCC;" vertex="1" parent="1">
          <mxGeometry x="687.5" y="465" width="41" height="14.2" as="geometry" />
        </mxCell>
        <mxCell id="T1ir6dgXuIq2QgHA1IsL-54" value="Socket" style="rounded=0;whiteSpace=wrap;html=1;fillColor=#60a917;strokeColor=#2D7600;fontColor=#ffffff;shadow=0;" vertex="1" parent="1">
          <mxGeometry x="705.5" y="415" width="80" height="20" as="geometry" />
        </mxCell>
        <mxCell id="T1ir6dgXuIq2QgHA1IsL-55" value="TCP/IP&lt;span style=&quot;color: rgba(0 , 0 , 0 , 0) ; font-family: monospace ; font-size: 0px&quot;&gt;%3CmxGraphModel%3E%3Croot%3E%3CmxCell%20id%3D%220%22%2F%3E%3CmxCell%20id%3D%221%22%20parent%3D%220%22%2F%3E%3CmxCell%20id%3D%222%22%20value%3D%22Socket%22%20style%3D%22rounded%3D0%3BwhiteSpace%3Dwrap%3Bhtml%3D1%3B%22%20vertex%3D%221%22%20parent%3D%221%22%3E%3CmxGeometry%20x%3D%22205%22%20y%3D%22180%22%20width%3D%2280%22%20height%3D%2220%22%20as%3D%22geometry%22%2F%3E%3C%2FmxCell%3E%3C%2Froot%3E%3C%2FmxGraphModel%3E&lt;/span&gt;" style="rounded=0;whiteSpace=wrap;html=1;fillColor=#fff2cc;strokeColor=#d6b656;shadow=0;" vertex="1" parent="1">
          <mxGeometry x="705.13" y="440" width="80" height="20" as="geometry" />
        </mxCell>
        <mxCell id="T1ir6dgXuIq2QgHA1IsL-82" style="edgeStyle=orthogonalEdgeStyle;rounded=0;orthogonalLoop=1;jettySize=auto;html=1;exitX=0.75;exitY=0;exitDx=0;exitDy=0;fillColor=default;" edge="1" parent="1" source="T1ir6dgXuIq2QgHA1IsL-56" target="T1ir6dgXuIq2QgHA1IsL-79">
          <mxGeometry relative="1" as="geometry" />
        </mxCell>
        <mxCell id="T1ir6dgXuIq2QgHA1IsL-56" value="" style="shape=image;verticalLabelPosition=bottom;labelBackgroundColor=#ffffff;verticalAlign=top;aspect=fixed;imageAspect=0;image=data:image/png,iVBORw0KGgoAAAANSUhEUgAAAX0AAACECAMAAABLTQsGAAABNVBMVEX///8BAQEAAADZ8f3/4QDp6ekAru88PDxCQkJvb2++vr6urq6lpaX29vaioqIuLi40NDTf+P//5QDX19e4uLgAsfPGxsbh+v//6AB5eXkAqu6cnJyEhITU1NRkZGTOzs7v7+8cHByCgoJPT0/h4eGSoqrI3ulRUVEmJiYODg5ycnKMjIxbW1u6z9kAmtRFTVHS6fXUuwA8Q0anusMAibxdZ2wBKTgAeKQBUG4BOU7O7vxeUwF4hoz32gApJAEzODuFlJxpdHqJ1PcAXH4Als4BJTOfsbqNnaW2oQA7u/J5awHLswDiyAAAbJTBqgA1LwFFPQEhGxY/jbCy5v8BFB0ma4iE0/dfw/MxufGk3/mYhgAARV4bFwEALkRxttaGdwGlkgByZAFxlKZPRgE7NQGVw9lgVQGq5+vfAAAUHElEQVR4nO2dC1caSRaAoRBEEBGQhxKxUYK0+H5EYyQ+4pjEmGR24655zGySze78/5+wVd31ruru6hYDG7jnzJkTpIvqr25X3Xvr1u1Y7CFkugPSSw/S8lgCZRkgyQy6G6MpJQDi8ThoDrofoykNBD8OwKD7MZLiqv6Y/mBkyoEfB91Bd2QUxSKqnxt0T0ZR6mPVH6B0XNW3x6o/AFnCE8/yoDsykrKMZ/3SoDsykpJ26U8Ouh8jKUk88dQH3ZGRlOx44hmgLI/93AHKikt/fdD9GEnJxV36M4PuyEhKDi+649j+IKSFwwytQXdkJKUyXnQHKHNj+gOU7Jj+AAXTH2/pDkQwfXvQ/RhNGc88g5TMmP6AJGdZVgbb++ONrZ8ouaVuYyXftO0mpr846B6NjmTWAZW4S3/eMrludbZr8r2xeMu0zahTAWA1MNSzhq6zrZ/QxV9WKnmFPMYPZud8r3STrsD8T+roryjLevZ4ANIV7ysbOBqa/3md/cUkl/aB7+j/lIfxk5zEV46336OKZfvCd/lrrZ85slIAMP2ze/2LSC4dwN7Fq25zWVPUNgKNAXT8/0CSpaW5end5Hslyd2ZuabElzSJTQZqPAcvr6ow9hu8ji9n5dAeo0pxdr2doqkjWCL6CeLpJr1MHZtSlNLMieU5sCscy2a3k6A5uOPytLtcuGKdcCVLq5lXsMkpHVmfmTeGja9Zg47mWO7D0U9vHHh09ya4EkBfHwBg++nq33sgLF8EBTA76hodIMp1wREOJPJMBnSk0umKtKuyVRbefY9GwBn3HQyQVES6xcU53t7a21uF/u3m7b2MA21jva46tlTQQy/LfcghuJKCBmEkv5CadC7PSrAB2D872NtrbiULVlcR2u72xd3a+1bzvCCC973Pwf15jHKtiT67PZ71HPR3cQmel8WjOO00sb9QNQZAxgvx+yiYOmid7EHshoUoBjcLVyW7EEXAvq/d9sX0U4n5nH3kMwKppC/kpj9D5ZCjwjiB3Z5G5no5s68izIYADs3fiPAOh4ee7D5HW/yiM7QtAWvvorRg24hCq6yahydAKiejn8hT+0/1N2PZJ1Y8+fgo2TvIh+QP7gUzMEPTj7tSn6YhJzIq1ALoq/2j06yTc+Le/l8vlI9j0RiB9NACJjYNQ/B+saEk4+qgjGj8vBH2nibxSACcafRvDz7c/LKTKSPl3TeijAWifh+H/UEcqwtJH8LL3o68LjUeiX8F7TPZ2IvE6lSq/NZt7XKludMzxP1TtgPD0Nc9hWPqwCelEciT6XZz/tAfXWqj8qfITiP+xKf5EIh9C+f03enWSSy5mMpWW5fedqUj2l2Q6hqaPwif3p4/P124hQ6fwGs098TD4CxshlH8qHPpSd5U4eZPz3iG5KPTjYOW+9CEmQZsi0Xfzn8CZY2YeI+W/RLd7DpdVaF1CT6uAPC1XoP+FfC/BGaiemtMPk9qcq8+KxvGkMlffi770IEagD9vgjadI9PGae+USvUD499HNdq7ae49Ptk5tkYGd3zo4e7zXRna/c0nhJMTEbxmz72qck7TeZI1EPw7S96YfF/aNItHHhwwfY32+W4Bm56WBn9Y5OLtqb8On4ywEfdM6hTMeP6q9PiJ98UB3NPp8hyLRxwVdTshs8nrz8Og3t6wdL/I/3f81D042zkPQN9tPKXkHXXQNKPTVy7S9EXbWItEXlD8S/XVu1U1U24+3uE4/OXrx9nD/cnMf3dCTy83N/f3Dty+Ont4G35v+54z8rWlP9vCnNFEumb7HlUpnhKlHoW/ShDDzK/R9bgPLPC4lBQCayfcY+i9v9zfhEuDIJpr7X6TK+J/lciq1uf8WPSHh4MdVJ0eryn6yortA+hXlAbHmVtRuiocMZPpganqGl3l9YIXbJJLpB8MHa7FFvOyeJ17iBfb26eGmyxgLwvyW/ROJOwqXhy+ehKIfbPDnVnz7q5t7gunHYsSpFL5n+dFXsrysGf8HSKFvNM1ikxO4OST20X6KJw9Bo9DPPz5CgZ8uOMKNwWWYiSe4QzkpSm43phdbrVKmQT9JK9cY0dfgF5bdYPqxWFJdHLgHSKFvNM12SU4fFEfrHbCI8eu7FLY/D46JfPj0z7u7jyk6Br+FirMF2Tw50ca3py3ylxZdiZVwhRl9zeLM98aEfsxSV1aWKRmNfoumVB5duugh2Y93Fx8SiU8L7rzT2ZZd3ONPF3flhQX4XJjDV917RcRpR/TkyVOhsDWkX7k/fVJ0jv8eXcqi0YfKj+eew7KDPnX36di1P1HU7RDe8JV2v6Vw/OEfISP8AT1p8OwnpaGq4M+VlduQvnXvmSem2YRhy25E+jly2Arslx30BC8KuqXgsnrqEeOpvgy5vxKQtVnn4StJhrl70o8p4Pg5zJD+tNIIjXRGpB/L0Lnn8OKYo3ux4AZ99KqfKJyF3FwMMHmWePhqug+hrzQSUfcDLE49fWXqYRoVlX5sje4tnvGxzbsFN9yv1/zCeVj4/qd4c/7w6eAo27KG9JfkrwmugyH9lkKfbhlFpk9/G4Atbk/9oxvt1+61FNoeB7Z86PsXSF3j4OtunXhhmj8Y0ZcTT8URNqRvPQT9ZIdcCpp7BDYKN6fg7e7pNP+xH3sXk/Khr8VT4eDrcpuT+G/q9qQZfVlrxfBwdN2nexbR6ceSTYofnLerZNF1jH3F3ExUN7b84TcPtuJKP/1Vn4usaRdnknCjrh1G9BVTXfqVyPP+vVddJEnuQAk4QVsryNpH9mZTYb/Nkhk0Oh4HHZQUsX0l/gU0Lb/fz3Kqr/s7sYfy6t6wQl/j02VtZc0VU4si2zz3tThdsfI80ZN2oXDhLrpb4nwvJJIA8Oyz5pTFhrNNud0B/Mf+UYYmg69ziDPkj5o4nUJ/vi5KV5ciLD2JhvTVUOh9vS0iDe5kAwAHexdues85W4YLBTcCzb72tVj7Jibg3t7SlJTtU+6b/udUMgy+bvOXGqOaEKdJfF9dhORwUWRflz5CCv25nLdo2q5zbcMO33453PyCTB60iVioVtsbZ1vCjQDwqjYxUdt5zo/HPucct5v0cQp4FwKL7+gy3pgnoFu4I+xtgbwVhb56StMvytbJe8pkOq8+GS0hO8chDRX55dXV1cuTg1NbQg9+3ED4ExPF3jWbtF6Uy7/RtYImPATtpyeZkmqGiT0YWnctNH0A0jJ8M/qrfs9QyN0V3a3UxYdU2lEU/mK/qhUnXKnt/IEp/1l27SS8TVwlhmmA7rMYQ1zhwv1R30hI+vp2DOgvaQ6HcxNquJ1FvSK1ptRJUnsHX3u1CSLFHgnU/QvlRDyFQ0PsowMSxPA19ln2tWKWWqz8jEc6UCj6sJmGrisK/bpwnmIx29Vl7fG31Q/6sVipEcQfsb9h7KHuf8aMz6uvU4LyJ7ZJCE+3XhLhJh6ZzBzLaPGK0YWhDyZn9GkpEfd1ubvqD32o//Pe+FEv/vjWo5OOS5+ofttNRoTK3yFm0h75m48BxvzcjjQsXMzZM0Aain6nkdU+hREzSjiG/aIfmyHE1HkOgOs3xaLAfqL4Bn8fGaevsYdMAqMFMvdo/CQiLHVKsEtz/KmUR55Xh515wIpGEaLR5wus9I1+HsO3Ff7gfU1Ue0f1v+PvbyQSVPlpGnrbxn/1PiPKNJzztJJCOptPNkRYmwe2NqsESqNlEvIeZL/ok6Ty697Oqx+yJ1uT2UN57n7fBf7aDVDQMxhVvA0Amp7Kzw5N0a9UhMSSWb8TR1HsfUUVItFf41voF/01rKw3xSJZT1m3dxTVL+5gvC8LCaL80OE9oD4yWXi93N0cNXmwW7C0LKY2rHlc6EojktpKbUbJYRYXqT7RxzuN4FnNmdKlq64V5ccjRLS9QM5gtMnCexXw0lGLBnnSsVxlWj4+2PSPEJU0sWwDa0XCHyV/X1y++0Qfn2EE74rMkmdX2T1Z+WvP3O+fYmX/hPcFaGooSTL3qkNl2SovJgExipyyy6NvRoUnLCXhz67Yku3UJ/okt9Bl+7t8b19l5e+9xxYP2Zb5iFOw6NRDrE6PeENSz8uRqaAklHmFLKiXJFnMrql+qri9EpI+XIrkjvWJPi7V+MOhXLtWNEua+Ys3OOOZbr6T3Xi2Kbbra/N7018LfINIVtVr7Y1ZdRU/v00Wij78yYZiQvQhzoMET/vfarwtzzX6XJx78NLAHTQ9RnlBfwKwRR4GOvPrHV4270tzTvAB30XNrOJxY4vqDMXZneHO6zY1aqTGOGd9pOO1mHHTPjMn+WbfT/D4i98wfbYFQ5Ih2vSTU/wdrS7LyZuOrJscsUvq5nQvtcooX+Ryhkzpo5/Laz2XaFm0suC8F2hvumvqV3XB+p3XfvwF0GSpDx9S7sFfEuyhqT8eS6ict2x7hANkIWmfZvSVRDTQYdOHWX1Fp28eVO+5t4WlhNW0J0zrYi/e77ClF68MYJdLPPno+rtbdN3dxvQ7Wo+Lq6INmlP1RcuspzlimxrSzypTD3PiTKJsoNnoLnm6jP2hvyTSJ3EEqWufaayHxBkOOPoX2N+lU0/1HLeqVRxW48U7mqMR+sgY0lfTQZj/p56eyAoyN1cJeBz7Q78i0dcoP/rzH696NWcEitjcP+HyDY+x1UOnngTe5dLXgGQJDWHqc3oUT/Smn/SZ+A131X3kYXRfNToJ/+t3N71esfdDpQ/9XbjsxrloQ5Uc0tD9ZIk93MbdzHnBD0OfDfaw0C+Jqy7yd+VkGMIfgOfvf39vq/Th1FP+E20K00ysAj5Yqj9AwWqvmpzsQtLiihFFp88s4GGhT2yed9SuKb7y2m3h7l6kf7yw7+wJM4er7Wf1sBzOWbNOLrFV0V43nXkyyjgNH31i738WzJpAg4zP+0FWD1J9YUh2faINXPK4kfLzh0orSnqsvxM/5PRn+UgDlvfB9Lf4VOfqvyGXW+iYUPq4ooCHw8W83aYV2EGLP+MypeayedBXTB4+1jA09El4n/OotHaP9GN5nj40ccATMQV3A4eDtJ3iSgMEmj0VvkI3dCBM6WuOvLEo89DQx5mi4A2PfycIPxfShIIAXYrp5zi7QW9z8kcn/EPKOT7P3/GXzOhbGm+W+6mhoY9NA2d3hU39Qfj5cm7bp8A5X/0E4MozzmSEaxLo19VpQ/xS/QxkQRnQzy0ua50WBmho6JOCSczmdPHr7U52K8S1KrQR/C/lVPkFF+ckNqdXaUK+nKXX21py09JrARzPWaGfT0vihIN0XWZdGR765Py0uI9S7L33VX8CuorCyeBpyj1tarPVYA9P/PpStPzZFW0EN9aqy69kcH0HkxxmfY+5gPfw0G8BnfJPFCe++55YsVFUp9pG6f0QfhlXuWJRZmLxe9iUywKuyTlR/5NzSrXYJraeotXniYt7i8NDH1eNiYO/pC3c2isvNXJu5nG14LIHL9xyAyjKzJbdAk4T8jpBJJfSXZ2pWOjzXMlJopRllQxPZPo2N8BDRJ8k9HD+Lsbf++7NH+zi4j63+6TKxhM+0Fbdclv1MilzvpvrsrClOTJ9fpNkiOiTvgAgJzAUizvPPPljLqiSDxQU4/8C2F47OuDrfMszn7Zlzr7DhYsi0heNr2GiT3JkRIeX8P/uAPDg/2LTrfbwCcX4j/gdlsJjvx0WJMb4hcnrQeqyDZI+OVoMNMlTE8Va79t/MAbCHP/g031X7xc+Hhc+4c3dAzrxX2Gjx/L82ZxBGXwA0mJeYcSKkCKcoaLPKmd81iVuFms3765/PCc44uToyhfM/sItbAtNTnT8vV0QTU6/VIXgYvrKqzMjVAKOKxkdQ0WflnICOLNEnYBqtd7Nzc6bN2924P/IMr1fXoDsHdYf3HMUjjHknP+lkR7fRJEl//cQaLK/o1TBtmWnY7jok6o9XtqPhwALTiaMg9vU3Sc8zxyTsrZQOmftaoGcofOnH4tlvKefR7oAafgK8GBNWXqGjD4x+mFnv08oecvyMNwQ5WclNTD9+JEL7vRsz5A+XPTnNcan7VWKORR95/nR5KMr2SYDpk+bA+A/N57qj5+Bz/RJ2aM2Dk7q2bx8SgnGzehDWaqvszO8zfSUzwtrTOm7beWXtRsMq8NGn1VDQceifdSfD0GAJonoFzD9y3J5/4ixN6SPJFlaysxlKiX/AvBSiMJPJqdm5BelElFmu9BvY1MS8u75qg3+CPpf3upf2+HDb9TAZ/RT5XJqH1XuxLNTn9+/spQ1kLlMybJ8GpmbEaUe+v08WbkFo3Q8TylxjxJwDujq9L828RUA4ZvYu6X0afnUQxObZyyuiNVQEP8b5bQidLyA5PbSHRVM/793Kbd2J7L+nbnJGvSd/T9IV15GAHj26qZYY3Zmb+c6zi0OdOV18WOLc6NwfIEGgBTv1FSTHYsqml1oKL9fv0L+1c3Ou29/PQf80rDGXARkdxKL0wnwH3+4+OedW7c27Ps/RlS0gTRpXec+rrMKP86BxWPX16V1bKmzNX63q4EkffZRBPLOJ3nHdV+lLsJp+4O7tUhLqZIAM3iIt/39cpIRTR6/PUX25jvqMoL4v6Gdw22rU9U3zBUccZnhltPm9LLXAKDPuZortIAQyqZC8X2c1l9o4ypt41fZGwnZ3IU4kdeNyyZo5iCx3s06ww+e3ALwsuq8OWqDvFDQ/L1DIy151zUCHRrxqDQ6dMony256Wnbdu7wNGgfnL6/2rs5O6ZiEOp0ysmK5jPNCtClXmplaIRmv+fVHGZ3bOif5vvwaLeQRjMVTnJOwzawGlhX0nvGk5h0zZCgiHaMcPYEabJseJFEkq1+i9eWtx6LKVHT2UHJq+QQ0B92nyZGS+04RrXmpspWYhDOWBxaLVNpxV96OYh2N5WHFynTX89DS76zX9ZnLIy7/A7bF4EmDp9/fAAAAAElFTkSuQmCC;" vertex="1" parent="1">
          <mxGeometry x="687.5" y="405" width="41" height="14.2" as="geometry" />
        </mxCell>
        <mxCell id="T1ir6dgXuIq2QgHA1IsL-57" value="k8s master" style="rounded=0;whiteSpace=wrap;html=1;align=left;verticalAlign=top;fillColor=#dae8fc;strokeColor=#6c8ebf;" vertex="1" parent="1">
          <mxGeometry x="144" y="10" width="376" height="250" as="geometry" />
        </mxCell>
        <mxCell id="T1ir6dgXuIq2QgHA1IsL-58" value="API server" style="rounded=0;whiteSpace=wrap;html=1;shadow=0;" vertex="1" parent="1">
          <mxGeometry x="161.13" y="100" width="120" height="40" as="geometry" />
        </mxCell>
        <mxCell id="T1ir6dgXuIq2QgHA1IsL-59" value="Scheduler" style="rounded=0;whiteSpace=wrap;html=1;shadow=0;" vertex="1" parent="1">
          <mxGeometry x="323.13" y="70" width="120" height="40" as="geometry" />
        </mxCell>
        <mxCell id="T1ir6dgXuIq2QgHA1IsL-60" value="controller manager" style="rounded=0;whiteSpace=wrap;html=1;shadow=0;" vertex="1" parent="1">
          <mxGeometry x="322.13" y="20" width="120" height="40" as="geometry" />
        </mxCell>
        <mxCell id="T1ir6dgXuIq2QgHA1IsL-61" value="" style="endArrow=classic;startArrow=classic;html=1;rounded=0;entryX=0;entryY=0.5;entryDx=0;entryDy=0;exitX=1;exitY=0.5;exitDx=0;exitDy=0;" edge="1" parent="1" source="T1ir6dgXuIq2QgHA1IsL-58" target="T1ir6dgXuIq2QgHA1IsL-59">
          <mxGeometry width="50" height="50" relative="1" as="geometry">
            <mxPoint x="264" y="310" as="sourcePoint" />
            <mxPoint x="314" y="260" as="targetPoint" />
          </mxGeometry>
        </mxCell>
        <mxCell id="T1ir6dgXuIq2QgHA1IsL-62" value="" style="endArrow=classic;startArrow=classic;html=1;rounded=0;entryX=0;entryY=0.75;entryDx=0;entryDy=0;exitX=1;exitY=0;exitDx=0;exitDy=0;" edge="1" parent="1" source="T1ir6dgXuIq2QgHA1IsL-58" target="T1ir6dgXuIq2QgHA1IsL-60">
          <mxGeometry width="50" height="50" relative="1" as="geometry">
            <mxPoint x="264" y="310" as="sourcePoint" />
            <mxPoint x="314" y="260" as="targetPoint" />
          </mxGeometry>
        </mxCell>
        <mxCell id="T1ir6dgXuIq2QgHA1IsL-63" value="Scheduler Advisor" style="rounded=0;whiteSpace=wrap;html=1;shadow=0;fillColor=#f8cecc;strokeColor=#b85450;" vertex="1" parent="1">
          <mxGeometry x="313.13" y="130" width="140" height="30" as="geometry" />
        </mxCell>
        <mxCell id="T1ir6dgXuIq2QgHA1IsL-64" value="MicroService Analyzer" style="rounded=0;whiteSpace=wrap;html=1;shadow=0;fillColor=#f8cecc;strokeColor=#b85450;" vertex="1" parent="1">
          <mxGeometry x="313.13" y="180" width="140" height="30" as="geometry" />
        </mxCell>
        <mxCell id="T1ir6dgXuIq2QgHA1IsL-65" value="" style="endArrow=classic;startArrow=classic;html=1;rounded=0;entryX=0.5;entryY=1;entryDx=0;entryDy=0;" edge="1" parent="1" source="T1ir6dgXuIq2QgHA1IsL-64" target="T1ir6dgXuIq2QgHA1IsL-63">
          <mxGeometry width="50" height="50" relative="1" as="geometry">
            <mxPoint x="264" y="300" as="sourcePoint" />
            <mxPoint x="314" y="250" as="targetPoint" />
          </mxGeometry>
        </mxCell>
        <mxCell id="T1ir6dgXuIq2QgHA1IsL-66" value="" style="endArrow=classic;startArrow=classic;html=1;rounded=0;entryX=0.5;entryY=0;entryDx=0;entryDy=0;" edge="1" parent="1" source="T1ir6dgXuIq2QgHA1IsL-59" target="T1ir6dgXuIq2QgHA1IsL-63">
          <mxGeometry width="50" height="50" relative="1" as="geometry">
            <mxPoint x="264" y="300" as="sourcePoint" />
            <mxPoint x="314" y="250" as="targetPoint" />
          </mxGeometry>
        </mxCell>
        <mxCell id="T1ir6dgXuIq2QgHA1IsL-67" value="kubelet" style="rounded=0;whiteSpace=wrap;html=1;shadow=0;" vertex="1" parent="1">
          <mxGeometry x="158.37" y="310" width="120" height="40" as="geometry" />
        </mxCell>
        <mxCell id="T1ir6dgXuIq2QgHA1IsL-68" value="kubelet" style="rounded=0;whiteSpace=wrap;html=1;shadow=0;" vertex="1" parent="1">
          <mxGeometry x="520.63" y="310" width="120" height="40" as="geometry" />
        </mxCell>
        <mxCell id="T1ir6dgXuIq2QgHA1IsL-84" style="edgeStyle=orthogonalEdgeStyle;rounded=0;orthogonalLoop=1;jettySize=auto;html=1;exitX=0.5;exitY=0;exitDx=0;exitDy=0;entryX=0.25;entryY=1;entryDx=0;entryDy=0;fillColor=default;" edge="1" parent="1" source="T1ir6dgXuIq2QgHA1IsL-69" target="T1ir6dgXuIq2QgHA1IsL-64">
          <mxGeometry relative="1" as="geometry">
            <Array as="points">
              <mxPoint x="370" y="250" />
              <mxPoint x="348" y="250" />
            </Array>
          </mxGeometry>
        </mxCell>
        <mxCell id="T1ir6dgXuIq2QgHA1IsL-69" value="eBPF hub" style="rounded=0;whiteSpace=wrap;html=1;shadow=0;fillColor=#f8cecc;strokeColor=#b85450;" vertex="1" parent="1">
          <mxGeometry x="310.01" y="310" width="120" height="40" as="geometry" />
        </mxCell>
        <mxCell id="T1ir6dgXuIq2QgHA1IsL-76" value="etcd" style="shape=cylinder3;whiteSpace=wrap;html=1;boundedLbl=1;backgroundOutline=1;size=8.20001220703125;shadow=0;" vertex="1" parent="1">
          <mxGeometry x="200.76" y="40" width="60" height="40" as="geometry" />
        </mxCell>
        <mxCell id="T1ir6dgXuIq2QgHA1IsL-78" value="" style="endArrow=classic;startArrow=classic;html=1;rounded=0;fillColor=default;entryX=0.5;entryY=1;entryDx=0;entryDy=0;entryPerimeter=0;exitX=0.594;exitY=-0.005;exitDx=0;exitDy=0;exitPerimeter=0;" edge="1" parent="1" source="T1ir6dgXuIq2QgHA1IsL-58" target="T1ir6dgXuIq2QgHA1IsL-76">
          <mxGeometry width="50" height="50" relative="1" as="geometry">
            <mxPoint x="204" y="120" as="sourcePoint" />
            <mxPoint x="254" y="70" as="targetPoint" />
          </mxGeometry>
        </mxCell>
        <mxCell id="T1ir6dgXuIq2QgHA1IsL-83" style="edgeStyle=orthogonalEdgeStyle;rounded=0;orthogonalLoop=1;jettySize=auto;html=1;exitX=0.5;exitY=0;exitDx=0;exitDy=0;fillColor=default;" edge="1" parent="1" source="T1ir6dgXuIq2QgHA1IsL-79" target="T1ir6dgXuIq2QgHA1IsL-64">
          <mxGeometry relative="1" as="geometry">
            <Array as="points">
              <mxPoint x="745" y="250" />
              <mxPoint x="383" y="250" />
            </Array>
          </mxGeometry>
        </mxCell>
        <mxCell id="T1ir6dgXuIq2QgHA1IsL-79" value="eBPF hub" style="rounded=0;whiteSpace=wrap;html=1;shadow=0;fillColor=#f8cecc;strokeColor=#b85450;" vertex="1" parent="1">
          <mxGeometry x="685.13" y="310" width="120" height="40" as="geometry" />
        </mxCell>
        <mxCell id="T1ir6dgXuIq2QgHA1IsL-85" value="1" style="ellipse;whiteSpace=wrap;html=1;aspect=fixed;strokeWidth=2;fontFamily=Tahoma;spacingBottom=4;spacingRight=2;strokeColor=#d3d3d3;shadow=0;" vertex="1" parent="1">
          <mxGeometry x="784" y="310" width="20" height="20" as="geometry" />
        </mxCell>
        <mxCell id="T1ir6dgXuIq2QgHA1IsL-86" value="2" style="ellipse;whiteSpace=wrap;html=1;aspect=fixed;strokeWidth=2;fontFamily=Tahoma;spacingBottom=4;spacingRight=2;strokeColor=#d3d3d3;shadow=0;" vertex="1" parent="1">
          <mxGeometry x="453" y="180" width="20" height="20" as="geometry" />
        </mxCell>
        <mxCell id="T1ir6dgXuIq2QgHA1IsL-87" value="3" style="ellipse;whiteSpace=wrap;html=1;aspect=fixed;strokeWidth=2;fontFamily=Tahoma;spacingBottom=4;spacingRight=2;strokeColor=#d3d3d3;shadow=0;" vertex="1" parent="1">
          <mxGeometry x="453" y="130" width="20" height="20" as="geometry" />
        </mxCell>
        <mxCell id="T1ir6dgXuIq2QgHA1IsL-88" value="1" style="ellipse;whiteSpace=wrap;html=1;aspect=fixed;strokeWidth=2;fontFamily=Tahoma;spacingBottom=4;spacingRight=2;strokeColor=#d3d3d3;shadow=0;" vertex="1" parent="1">
          <mxGeometry x="579" y="30" width="20" height="20" as="geometry" />
        </mxCell>
        <mxCell id="T1ir6dgXuIq2QgHA1IsL-89" value="2" style="ellipse;whiteSpace=wrap;html=1;aspect=fixed;strokeWidth=2;fontFamily=Tahoma;spacingBottom=4;spacingRight=2;strokeColor=#d3d3d3;shadow=0;" vertex="1" parent="1">
          <mxGeometry x="579" y="80" width="20" height="20" as="geometry" />
        </mxCell>
        <mxCell id="T1ir6dgXuIq2QgHA1IsL-90" value="3" style="ellipse;whiteSpace=wrap;html=1;aspect=fixed;strokeWidth=2;fontFamily=Tahoma;spacingBottom=4;spacingRight=2;strokeColor=#d3d3d3;shadow=0;" vertex="1" parent="1">
          <mxGeometry x="579" y="130" width="20" height="20" as="geometry" />
        </mxCell>
        <mxCell id="T1ir6dgXuIq2QgHA1IsL-91" value="Text" style="text;html=1;strokeColor=none;fillColor=none;align=center;verticalAlign=middle;whiteSpace=wrap;rounded=0;shadow=0;" vertex="1" parent="1">
          <mxGeometry x="510" y="260" width="60" height="30" as="geometry" />
        </mxCell>
        <mxCell id="T1ir6dgXuIq2QgHA1IsL-92" value="&lt;span style=&quot;font-size: 12px; font-family: &amp;quot;Intel Clear&amp;quot;;&quot;&gt;Collect traffic metrics via eBPF&amp;nbsp;&lt;/span&gt;" style="text;html=1;strokeColor=none;fillColor=none;align=center;verticalAlign=middle;whiteSpace=wrap;rounded=0;shadow=0;fontSize=12;" vertex="1" parent="1">
          <mxGeometry x="599" y="25" width="210" height="30" as="geometry" />
        </mxCell>
        <mxCell id="T1ir6dgXuIq2QgHA1IsL-94" value="&lt;font style=&quot;font-size: 12px;&quot; face=&quot;Intel Clear&quot;&gt;construct pod network topology&lt;/font&gt;" style="text;html=1;strokeColor=none;fillColor=none;align=center;verticalAlign=middle;whiteSpace=wrap;rounded=0;shadow=0;fontSize=12;" vertex="1" parent="1">
          <mxGeometry x="599" y="75" width="210" height="30" as="geometry" />
        </mxCell>
        <mxCell id="T1ir6dgXuIq2QgHA1IsL-95" value="&lt;font style=&quot;font-size: 12px;&quot; face=&quot;Intel Clear&quot;&gt;give reschedule advise to scheduler&amp;nbsp;&lt;/font&gt;" style="text;html=1;strokeColor=none;fillColor=none;align=center;verticalAlign=middle;whiteSpace=wrap;rounded=0;shadow=0;fontSize=12;" vertex="1" parent="1">
          <mxGeometry x="610" y="125" width="210" height="30" as="geometry" />
        </mxCell>
      </root>
    </mxGraphModel>
  </diagram>
</mxfile>
